<?xml version="1.0" encoding="UTF-8"?>
<svg xmlns="http://www.w3.org/2000/svg" xmlns:xlink="http://www.w3.org/1999/xlink" width="163.139pt" height="191.485pt" viewBox="0 0 163.139 191.485" version="1.1">
<defs>
<clipPath id="clip1">
  <path d="M 0 118 L 139 118 L 139 191.484375 L 0 191.484375 Z M 0 118 "/>
</clipPath>
<clipPath id="clip2">
  <path d="M 52 119 L 163.140625 119 L 163.140625 191.484375 L 52 191.484375 Z M 52 119 "/>
</clipPath>
<clipPath id="clip3">
  <path d="M 0 166 L 25 166 L 25 191.484375 L 0 191.484375 Z M 0 166 "/>
</clipPath>
<clipPath id="clip4">
  <path d="M 24 166 L 54 166 L 54 191.484375 L 24 191.484375 Z M 24 166 "/>
</clipPath>
<clipPath id="clip5">
  <path d="M 53 166 L 82 166 L 82 191.484375 L 53 191.484375 Z M 53 166 "/>
</clipPath>
<clipPath id="clip6">
  <path d="M 81 166 L 110 166 L 110 191.484375 L 81 191.484375 Z M 81 166 "/>
</clipPath>
<clipPath id="clip7">
  <path d="M 109 166 L 139 166 L 139 191.484375 L 109 191.484375 Z M 109 166 "/>
</clipPath>
<clipPath id="clip8">
  <path d="M 138 0 L 163.140625 0 L 163.140625 25 L 138 25 Z M 138 0 "/>
</clipPath>
<clipPath id="clip9">
  <path d="M 138 39 L 163.140625 39 L 163.140625 68 L 138 68 Z M 138 39 "/>
</clipPath>
<clipPath id="clip10">
  <path d="M 138 81 L 163.140625 81 L 163.140625 110 L 138 110 Z M 138 81 "/>
</clipPath>
<clipPath id="clip11">
  <path d="M 138 124 L 163.140625 124 L 163.140625 153 L 138 153 Z M 138 124 "/>
</clipPath>
<clipPath id="clip12">
  <path d="M 138 166 L 163.140625 166 L 163.140625 191.484375 L 138 191.484375 Z M 138 166 "/>
</clipPath>
</defs>
<g id="surface1">
<path style="fill:none;stroke-width:1.59404;stroke-linecap:butt;stroke-linejoin:miter;stroke:rgb(0%,0%,100%);stroke-opacity:1;stroke-miterlimit:10;" d="M 23.64075 -7.086062 L 5.375125 -34.429812 " transform="matrix(1,0,0,-1,10.703,10.703)"/>
<path style="fill:none;stroke-width:1.27522;stroke-linecap:round;stroke-linejoin:round;stroke:rgb(0%,0%,100%);stroke-opacity:1;stroke-miterlimit:10;" d="M -2.273691 3.028654 C -2.083041 1.89229 -0.00016355 0.187774 0.567739 -0.00130676 C -0.00198325 -0.189268 -2.081722 -1.893284 -2.271363 -3.029998 " transform="matrix(-0.55544,0.8315,0.8315,0.55544,16.07815,45.13412)"/>
<path style="fill:none;stroke-width:1.59404;stroke-linecap:butt;stroke-linejoin:miter;stroke:rgb(0%,0%,100%);stroke-opacity:1;stroke-miterlimit:10;" d="M 6.804813 -47.621219 L 48.925906 -79.214969 " transform="matrix(1,0,0,-1,10.703,10.703)"/>
<path style="fill:none;stroke-width:1.27522;stroke-linecap:round;stroke-linejoin:round;stroke:rgb(0%,0%,100%);stroke-opacity:1;stroke-miterlimit:10;" d="M -2.27111 3.028194 C -2.08203 1.890662 -0.00070092 0.18985 0.566505 0.00000641525 C 0.000865424 -0.189849 -2.081211 -1.893046 -2.271049 -3.026675 " transform="matrix(0.79997,0.59999,0.59999,-0.79997,59.62884,89.91792)"/>
<path style="fill:none;stroke-width:1.59404;stroke-linecap:butt;stroke-linejoin:miter;stroke:rgb(0%,0%,100%);stroke-opacity:1;stroke-miterlimit:10;" d="M 63.496219 -90.14075 L 105.621219 -121.7345 " transform="matrix(1,0,0,-1,10.703,10.703)"/>
<path style="fill:none;stroke-width:1.27522;stroke-linecap:round;stroke-linejoin:round;stroke:rgb(0%,0%,100%);stroke-opacity:1;stroke-miterlimit:10;" d="M -2.270157 3.029744 C -2.081078 1.892212 0.000251844 0.191401 0.567458 0.00155697 C -0.00130688 -0.190642 -2.083384 -1.893839 -2.270878 -3.030594 " transform="matrix(0.79997,0.59999,0.59999,-0.79997,116.32246,132.43812)"/>
<g clip-path="url(#clip1)" clip-rule="nonzero">
<path style="fill:none;stroke-width:1.59404;stroke-linecap:butt;stroke-linejoin:miter;stroke:rgb(0%,0%,100%);stroke-opacity:1;stroke-miterlimit:10;" d="M 105.422 -130.535281 L 9.093875 -166.652469 " transform="matrix(1,0,0,-1,10.703,10.703)"/>
</g>
<path style="fill:none;stroke-width:1.27522;stroke-linecap:round;stroke-linejoin:round;stroke:rgb(0%,0%,100%);stroke-opacity:1;stroke-miterlimit:10;" d="M -2.272304 3.02935 C -2.080652 1.893634 -0.000195319 0.187438 0.567682 -0.000439602 C 0.000744631 -0.188395 -2.082224 -1.893959 -2.270064 -3.029243 " transform="matrix(-0.9363,0.35104,0.35104,0.9363,19.7973,177.35582)"/>
<path style="fill:none;stroke-width:1.59404;stroke-linecap:butt;stroke-linejoin:miter;stroke:rgb(100%,0%,0%);stroke-opacity:1;stroke-miterlimit:10;" d="M 4.707156 -7.086062 L 22.972781 -34.429812 " transform="matrix(1,0,0,-1,10.703,10.703)"/>
<path style="fill:none;stroke-width:1.27522;stroke-linecap:round;stroke-linejoin:round;stroke:rgb(100%,0%,0%);stroke-opacity:1;stroke-miterlimit:10;" d="M -2.272901 3.027694 C -2.081091 1.894229 -0.00135207 0.190213 0.5662 -0.000996714 C -0.00170226 -0.190078 -2.08241 -1.891345 -2.27306 -3.027709 " transform="matrix(0.55544,0.8315,0.8315,-0.55544,33.67462,45.13412)"/>
<path style="fill:none;stroke-width:1.59404;stroke-linecap:butt;stroke-linejoin:miter;stroke:rgb(100%,0%,0%);stroke-opacity:1;stroke-miterlimit:10;" d="M 35.945437 -46.320437 L 104.711062 -80.70325 " transform="matrix(1,0,0,-1,10.703,10.703)"/>
<path style="fill:none;stroke-width:1.27522;stroke-linecap:round;stroke-linejoin:round;stroke:rgb(100%,0%,0%);stroke-opacity:1;stroke-miterlimit:10;" d="M -2.27178 3.030369 C -2.083107 1.893027 0.00112931 0.18787 0.567177 -0.000817949 C 0.00112595 -0.187749 -2.081393 -1.892868 -2.273581 -3.02846 " transform="matrix(0.89436,0.44717,0.44717,-0.89436,115.41498,91.4058)"/>
<path style="fill:none;stroke-width:1.59404;stroke-linecap:butt;stroke-linejoin:miter;stroke:rgb(100%,0%,0%);stroke-opacity:1;stroke-miterlimit:10;" d="M 106.582156 -90.14075 L 64.461062 -121.7345 " transform="matrix(1,0,0,-1,10.703,10.703)"/>
<path style="fill:none;stroke-width:1.27522;stroke-linecap:round;stroke-linejoin:round;stroke:rgb(100%,0%,0%);stroke-opacity:1;stroke-miterlimit:10;" d="M -2.268922 3.029127 C -2.081428 1.892372 0.000649161 0.189175 0.566289 -0.000680183 C -0.000917183 -0.190524 -2.082247 -1.891335 -2.271326 -3.028868 " transform="matrix(-0.79997,0.59999,0.59999,0.79997,75.16436,132.43812)"/>
<g clip-path="url(#clip2)" clip-rule="nonzero">
<path style="fill:none;stroke-width:1.59404;stroke-linecap:butt;stroke-linejoin:miter;stroke:rgb(100%,0%,0%);stroke-opacity:1;stroke-miterlimit:10;" d="M 64.289187 -131.3595 L 133.058719 -165.742312 " transform="matrix(1,0,0,-1,10.703,10.703)"/>
</g>
<path style="fill:none;stroke-width:1.27522;stroke-linecap:round;stroke-linejoin:round;stroke:rgb(100%,0%,0%);stroke-opacity:1;stroke-miterlimit:10;" d="M -2.269892 3.028485 C -2.082966 1.894637 0.00127021 0.189481 0.567318 0.000792706 C -0.000480269 -0.19138 -2.081252 -1.891257 -2.271693 -3.030343 " transform="matrix(0.89436,0.44717,0.44717,-0.89436,143.76179,176.44624)"/>
<path style="fill-rule:nonzero;fill:rgb(89.99939%,89.99939%,89.99939%);fill-opacity:1;stroke-width:0.3985;stroke-linecap:butt;stroke-linejoin:miter;stroke:rgb(0%,0%,0%);stroke-opacity:1;stroke-miterlimit:10;" d="M 8.504031 -0.000125 C 8.504031 4.695188 4.695438 8.503781 0.000125 8.503781 C -4.695187 8.503781 -8.503781 4.695188 -8.503781 -0.000125 C -8.503781 -4.695437 -4.695187 -8.504031 0.000125 -8.504031 C 4.695438 -8.504031 8.504031 -4.695437 8.504031 -0.000125 Z M 8.504031 -0.000125 " transform="matrix(1,0,0,-1,10.703,10.703)"/>
<path style="fill-rule:nonzero;fill:rgb(89.99939%,89.99939%,89.99939%);fill-opacity:1;stroke-width:0.3985;stroke-linecap:butt;stroke-linejoin:miter;stroke:rgb(0%,0%,0%);stroke-opacity:1;stroke-miterlimit:10;" d="M 8.504031 -42.519656 C 8.504031 -37.824344 4.695438 -34.01575 0.000125 -34.01575 C -4.695187 -34.01575 -8.503781 -37.824344 -8.503781 -42.519656 C -8.503781 -47.218875 -4.695187 -51.023562 0.000125 -51.023562 C 4.695438 -51.023562 8.504031 -47.218875 8.504031 -42.519656 Z M 8.504031 -42.519656 " transform="matrix(1,0,0,-1,10.703,10.703)"/>
<path style="fill-rule:nonzero;fill:rgb(89.99939%,89.99939%,89.99939%);fill-opacity:1;stroke-width:0.3985;stroke-linecap:butt;stroke-linejoin:miter;stroke:rgb(0%,0%,0%);stroke-opacity:1;stroke-miterlimit:10;" d="M 8.504031 -85.039187 C 8.504031 -80.343875 4.695438 -76.535281 0.000125 -76.535281 C -4.695187 -76.535281 -8.503781 -80.343875 -8.503781 -85.039187 C -8.503781 -89.738406 -4.695187 -93.543094 0.000125 -93.543094 C 4.695438 -93.543094 8.504031 -89.738406 8.504031 -85.039187 Z M 8.504031 -85.039187 " transform="matrix(1,0,0,-1,10.703,10.703)"/>
<path style="fill-rule:nonzero;fill:rgb(89.99939%,89.99939%,89.99939%);fill-opacity:1;stroke-width:0.3985;stroke-linecap:butt;stroke-linejoin:miter;stroke:rgb(0%,0%,0%);stroke-opacity:1;stroke-miterlimit:10;" d="M 8.504031 -127.558719 C 8.504031 -122.863406 4.695438 -119.054812 0.000125 -119.054812 C -4.695187 -119.054812 -8.503781 -122.863406 -8.503781 -127.558719 C -8.503781 -132.257937 -4.695187 -136.066531 0.000125 -136.066531 C 4.695438 -136.066531 8.504031 -132.257937 8.504031 -127.558719 Z M 8.504031 -127.558719 " transform="matrix(1,0,0,-1,10.703,10.703)"/>
<path style=" stroke:none;fill-rule:nonzero;fill:rgb(89.99939%,89.99939%,89.99939%);fill-opacity:1;" d="M 19.207031 180.785156 C 19.207031 176.085938 15.398438 172.28125 10.703125 172.28125 C 6.007812 172.28125 2.199219 176.085938 2.199219 180.785156 C 2.199219 185.480469 6.007812 189.289062 10.703125 189.289062 C 15.398438 189.289062 19.207031 185.480469 19.207031 180.785156 Z M 19.207031 180.785156 "/>
<g clip-path="url(#clip3)" clip-rule="nonzero">
<path style="fill:none;stroke-width:0.3985;stroke-linecap:butt;stroke-linejoin:miter;stroke:rgb(0%,0%,0%);stroke-opacity:1;stroke-miterlimit:10;" d="M 8.504031 -170.082156 C 8.504031 -165.382937 4.695438 -161.57825 0.000125 -161.57825 C -4.695187 -161.57825 -8.503781 -165.382937 -8.503781 -170.082156 C -8.503781 -174.777469 -4.695187 -178.586062 0.000125 -178.586062 C 4.695438 -178.586062 8.504031 -174.777469 8.504031 -170.082156 Z M 8.504031 -170.082156 " transform="matrix(1,0,0,-1,10.703,10.703)"/>
</g>
<path style="fill-rule:nonzero;fill:rgb(89.99939%,89.99939%,89.99939%);fill-opacity:1;stroke-width:0.3985;stroke-linecap:butt;stroke-linejoin:miter;stroke:rgb(0%,0%,0%);stroke-opacity:1;stroke-miterlimit:10;" d="M 36.851687 -0.000125 C 36.851687 4.695188 33.043094 8.503781 28.347781 8.503781 C 23.648563 8.503781 19.843875 4.695188 19.843875 -0.000125 C 19.843875 -4.695437 23.648563 -8.504031 28.347781 -8.504031 C 33.043094 -8.504031 36.851687 -4.695437 36.851687 -0.000125 Z M 36.851687 -0.000125 " transform="matrix(1,0,0,-1,10.703,10.703)"/>
<path style="fill-rule:nonzero;fill:rgb(89.99939%,89.99939%,89.99939%);fill-opacity:1;stroke-width:0.3985;stroke-linecap:butt;stroke-linejoin:miter;stroke:rgb(0%,0%,0%);stroke-opacity:1;stroke-miterlimit:10;" d="M 36.851687 -42.519656 C 36.851687 -37.824344 33.043094 -34.01575 28.347781 -34.01575 C 23.648563 -34.01575 19.843875 -37.824344 19.843875 -42.519656 C 19.843875 -47.218875 23.648563 -51.023562 28.347781 -51.023562 C 33.043094 -51.023562 36.851687 -47.218875 36.851687 -42.519656 Z M 36.851687 -42.519656 " transform="matrix(1,0,0,-1,10.703,10.703)"/>
<path style="fill-rule:nonzero;fill:rgb(89.99939%,89.99939%,89.99939%);fill-opacity:1;stroke-width:0.3985;stroke-linecap:butt;stroke-linejoin:miter;stroke:rgb(0%,0%,0%);stroke-opacity:1;stroke-miterlimit:10;" d="M 36.851687 -85.039187 C 36.851687 -80.343875 33.043094 -76.535281 28.347781 -76.535281 C 23.648563 -76.535281 19.843875 -80.343875 19.843875 -85.039187 C 19.843875 -89.738406 23.648563 -93.543094 28.347781 -93.543094 C 33.043094 -93.543094 36.851687 -89.738406 36.851687 -85.039187 Z M 36.851687 -85.039187 " transform="matrix(1,0,0,-1,10.703,10.703)"/>
<path style="fill-rule:nonzero;fill:rgb(89.99939%,89.99939%,89.99939%);fill-opacity:1;stroke-width:0.3985;stroke-linecap:butt;stroke-linejoin:miter;stroke:rgb(0%,0%,0%);stroke-opacity:1;stroke-miterlimit:10;" d="M 36.851687 -127.558719 C 36.851687 -122.863406 33.043094 -119.054812 28.347781 -119.054812 C 23.648563 -119.054812 19.843875 -122.863406 19.843875 -127.558719 C 19.843875 -132.257937 23.648563 -136.066531 28.347781 -136.066531 C 33.043094 -136.066531 36.851687 -132.257937 36.851687 -127.558719 Z M 36.851687 -127.558719 " transform="matrix(1,0,0,-1,10.703,10.703)"/>
<path style=" stroke:none;fill-rule:nonzero;fill:rgb(89.99939%,89.99939%,89.99939%);fill-opacity:1;" d="M 47.554688 180.785156 C 47.554688 176.085938 43.746094 172.28125 39.050781 172.28125 C 34.351562 172.28125 30.546875 176.085938 30.546875 180.785156 C 30.546875 185.480469 34.351562 189.289062 39.050781 189.289062 C 43.746094 189.289062 47.554688 185.480469 47.554688 180.785156 Z M 47.554688 180.785156 "/>
<g clip-path="url(#clip4)" clip-rule="nonzero">
<path style="fill:none;stroke-width:0.3985;stroke-linecap:butt;stroke-linejoin:miter;stroke:rgb(0%,0%,0%);stroke-opacity:1;stroke-miterlimit:10;" d="M 36.851687 -170.082156 C 36.851687 -165.382937 33.043094 -161.57825 28.347781 -161.57825 C 23.648563 -161.57825 19.843875 -165.382937 19.843875 -170.082156 C 19.843875 -174.777469 23.648563 -178.586062 28.347781 -178.586062 C 33.043094 -178.586062 36.851687 -174.777469 36.851687 -170.082156 Z M 36.851687 -170.082156 " transform="matrix(1,0,0,-1,10.703,10.703)"/>
</g>
<path style="fill-rule:nonzero;fill:rgb(89.99939%,89.99939%,89.99939%);fill-opacity:1;stroke-width:0.3985;stroke-linecap:butt;stroke-linejoin:miter;stroke:rgb(0%,0%,0%);stroke-opacity:1;stroke-miterlimit:10;" d="M 65.199344 -0.000125 C 65.199344 4.695188 61.39075 8.503781 56.695437 8.503781 C 51.996219 8.503781 48.187625 4.695188 48.187625 -0.000125 C 48.187625 -4.695437 51.996219 -8.504031 56.695437 -8.504031 C 61.39075 -8.504031 65.199344 -4.695437 65.199344 -0.000125 Z M 65.199344 -0.000125 " transform="matrix(1,0,0,-1,10.703,10.703)"/>
<path style="fill-rule:nonzero;fill:rgb(89.99939%,89.99939%,89.99939%);fill-opacity:1;stroke-width:0.3985;stroke-linecap:butt;stroke-linejoin:miter;stroke:rgb(0%,0%,0%);stroke-opacity:1;stroke-miterlimit:10;" d="M 65.199344 -42.519656 C 65.199344 -37.824344 61.39075 -34.01575 56.695437 -34.01575 C 51.996219 -34.01575 48.187625 -37.824344 48.187625 -42.519656 C 48.187625 -47.218875 51.996219 -51.023562 56.695437 -51.023562 C 61.39075 -51.023562 65.199344 -47.218875 65.199344 -42.519656 Z M 65.199344 -42.519656 " transform="matrix(1,0,0,-1,10.703,10.703)"/>
<path style="fill-rule:nonzero;fill:rgb(89.99939%,89.99939%,89.99939%);fill-opacity:1;stroke-width:0.3985;stroke-linecap:butt;stroke-linejoin:miter;stroke:rgb(0%,0%,0%);stroke-opacity:1;stroke-miterlimit:10;" d="M 65.199344 -85.039187 C 65.199344 -80.343875 61.39075 -76.535281 56.695437 -76.535281 C 51.996219 -76.535281 48.187625 -80.343875 48.187625 -85.039187 C 48.187625 -89.738406 51.996219 -93.543094 56.695437 -93.543094 C 61.39075 -93.543094 65.199344 -89.738406 65.199344 -85.039187 Z M 65.199344 -85.039187 " transform="matrix(1,0,0,-1,10.703,10.703)"/>
<path style="fill-rule:nonzero;fill:rgb(89.99939%,89.99939%,89.99939%);fill-opacity:1;stroke-width:0.3985;stroke-linecap:butt;stroke-linejoin:miter;stroke:rgb(0%,0%,0%);stroke-opacity:1;stroke-miterlimit:10;" d="M 65.199344 -127.558719 C 65.199344 -122.863406 61.39075 -119.054812 56.695437 -119.054812 C 51.996219 -119.054812 48.187625 -122.863406 48.187625 -127.558719 C 48.187625 -132.257937 51.996219 -136.066531 56.695437 -136.066531 C 61.39075 -136.066531 65.199344 -132.257937 65.199344 -127.558719 Z M 65.199344 -127.558719 " transform="matrix(1,0,0,-1,10.703,10.703)"/>
<path style=" stroke:none;fill-rule:nonzero;fill:rgb(89.99939%,89.99939%,89.99939%);fill-opacity:1;" d="M 75.902344 180.785156 C 75.902344 176.085938 72.09375 172.28125 67.398438 172.28125 C 62.699219 172.28125 58.890625 176.085938 58.890625 180.785156 C 58.890625 185.480469 62.699219 189.289062 67.398438 189.289062 C 72.09375 189.289062 75.902344 185.480469 75.902344 180.785156 Z M 75.902344 180.785156 "/>
<g clip-path="url(#clip5)" clip-rule="nonzero">
<path style="fill:none;stroke-width:0.3985;stroke-linecap:butt;stroke-linejoin:miter;stroke:rgb(0%,0%,0%);stroke-opacity:1;stroke-miterlimit:10;" d="M 65.199344 -170.082156 C 65.199344 -165.382937 61.39075 -161.57825 56.695437 -161.57825 C 51.996219 -161.57825 48.187625 -165.382937 48.187625 -170.082156 C 48.187625 -174.777469 51.996219 -178.586062 56.695437 -178.586062 C 61.39075 -178.586062 65.199344 -174.777469 65.199344 -170.082156 Z M 65.199344 -170.082156 " transform="matrix(1,0,0,-1,10.703,10.703)"/>
</g>
<path style="fill-rule:nonzero;fill:rgb(89.99939%,89.99939%,89.99939%);fill-opacity:1;stroke-width:0.3985;stroke-linecap:butt;stroke-linejoin:miter;stroke:rgb(0%,0%,0%);stroke-opacity:1;stroke-miterlimit:10;" d="M 93.543094 -0.000125 C 93.543094 4.695188 89.738406 8.503781 85.039187 8.503781 C 80.343875 8.503781 76.535281 4.695188 76.535281 -0.000125 C 76.535281 -4.695437 80.343875 -8.504031 85.039187 -8.504031 C 89.738406 -8.504031 93.543094 -4.695437 93.543094 -0.000125 Z M 93.543094 -0.000125 " transform="matrix(1,0,0,-1,10.703,10.703)"/>
<path style="fill-rule:nonzero;fill:rgb(89.99939%,89.99939%,89.99939%);fill-opacity:1;stroke-width:0.3985;stroke-linecap:butt;stroke-linejoin:miter;stroke:rgb(0%,0%,0%);stroke-opacity:1;stroke-miterlimit:10;" d="M 93.543094 -42.519656 C 93.543094 -37.824344 89.738406 -34.01575 85.039187 -34.01575 C 80.343875 -34.01575 76.535281 -37.824344 76.535281 -42.519656 C 76.535281 -47.218875 80.343875 -51.023562 85.039187 -51.023562 C 89.738406 -51.023562 93.543094 -47.218875 93.543094 -42.519656 Z M 93.543094 -42.519656 " transform="matrix(1,0,0,-1,10.703,10.703)"/>
<path style="fill-rule:nonzero;fill:rgb(89.99939%,89.99939%,89.99939%);fill-opacity:1;stroke-width:0.3985;stroke-linecap:butt;stroke-linejoin:miter;stroke:rgb(0%,0%,0%);stroke-opacity:1;stroke-miterlimit:10;" d="M 93.543094 -85.039187 C 93.543094 -80.343875 89.738406 -76.535281 85.039187 -76.535281 C 80.343875 -76.535281 76.535281 -80.343875 76.535281 -85.039187 C 76.535281 -89.738406 80.343875 -93.543094 85.039187 -93.543094 C 89.738406 -93.543094 93.543094 -89.738406 93.543094 -85.039187 Z M 93.543094 -85.039187 " transform="matrix(1,0,0,-1,10.703,10.703)"/>
<path style="fill-rule:nonzero;fill:rgb(89.99939%,89.99939%,89.99939%);fill-opacity:1;stroke-width:0.3985;stroke-linecap:butt;stroke-linejoin:miter;stroke:rgb(0%,0%,0%);stroke-opacity:1;stroke-miterlimit:10;" d="M 93.543094 -127.558719 C 93.543094 -122.863406 89.738406 -119.054812 85.039187 -119.054812 C 80.343875 -119.054812 76.535281 -122.863406 76.535281 -127.558719 C 76.535281 -132.257937 80.343875 -136.066531 85.039187 -136.066531 C 89.738406 -136.066531 93.543094 -132.257937 93.543094 -127.558719 Z M 93.543094 -127.558719 " transform="matrix(1,0,0,-1,10.703,10.703)"/>
<path style=" stroke:none;fill-rule:nonzero;fill:rgb(89.99939%,89.99939%,89.99939%);fill-opacity:1;" d="M 104.246094 180.785156 C 104.246094 176.085938 100.441406 172.28125 95.742188 172.28125 C 91.046875 172.28125 87.238281 176.085938 87.238281 180.785156 C 87.238281 185.480469 91.046875 189.289062 95.742188 189.289062 C 100.441406 189.289062 104.246094 185.480469 104.246094 180.785156 Z M 104.246094 180.785156 "/>
<g clip-path="url(#clip6)" clip-rule="nonzero">
<path style="fill:none;stroke-width:0.3985;stroke-linecap:butt;stroke-linejoin:miter;stroke:rgb(0%,0%,0%);stroke-opacity:1;stroke-miterlimit:10;" d="M 93.543094 -170.082156 C 93.543094 -165.382937 89.738406 -161.57825 85.039187 -161.57825 C 80.343875 -161.57825 76.535281 -165.382937 76.535281 -170.082156 C 76.535281 -174.777469 80.343875 -178.586062 85.039187 -178.586062 C 89.738406 -178.586062 93.543094 -174.777469 93.543094 -170.082156 Z M 93.543094 -170.082156 " transform="matrix(1,0,0,-1,10.703,10.703)"/>
</g>
<path style="fill-rule:nonzero;fill:rgb(89.99939%,89.99939%,89.99939%);fill-opacity:1;stroke-width:0.3985;stroke-linecap:butt;stroke-linejoin:miter;stroke:rgb(0%,0%,0%);stroke-opacity:1;stroke-miterlimit:10;" d="M 121.89075 -0.000125 C 121.89075 4.695188 118.082156 8.503781 113.386844 8.503781 C 108.691531 8.503781 104.882937 4.695188 104.882937 -0.000125 C 104.882937 -4.695437 108.691531 -8.504031 113.386844 -8.504031 C 118.082156 -8.504031 121.89075 -4.695437 121.89075 -0.000125 Z M 121.89075 -0.000125 " transform="matrix(1,0,0,-1,10.703,10.703)"/>
<path style="fill-rule:nonzero;fill:rgb(89.99939%,89.99939%,89.99939%);fill-opacity:1;stroke-width:0.3985;stroke-linecap:butt;stroke-linejoin:miter;stroke:rgb(0%,0%,0%);stroke-opacity:1;stroke-miterlimit:10;" d="M 121.89075 -42.519656 C 121.89075 -37.824344 118.082156 -34.01575 113.386844 -34.01575 C 108.691531 -34.01575 104.882937 -37.824344 104.882937 -42.519656 C 104.882937 -47.218875 108.691531 -51.023562 113.386844 -51.023562 C 118.082156 -51.023562 121.89075 -47.218875 121.89075 -42.519656 Z M 121.89075 -42.519656 " transform="matrix(1,0,0,-1,10.703,10.703)"/>
<path style="fill-rule:nonzero;fill:rgb(89.99939%,89.99939%,89.99939%);fill-opacity:1;stroke-width:0.3985;stroke-linecap:butt;stroke-linejoin:miter;stroke:rgb(0%,0%,0%);stroke-opacity:1;stroke-miterlimit:10;" d="M 121.89075 -85.039187 C 121.89075 -80.343875 118.082156 -76.535281 113.386844 -76.535281 C 108.691531 -76.535281 104.882937 -80.343875 104.882937 -85.039187 C 104.882937 -89.738406 108.691531 -93.543094 113.386844 -93.543094 C 118.082156 -93.543094 121.89075 -89.738406 121.89075 -85.039187 Z M 121.89075 -85.039187 " transform="matrix(1,0,0,-1,10.703,10.703)"/>
<path style="fill-rule:nonzero;fill:rgb(89.99939%,89.99939%,89.99939%);fill-opacity:1;stroke-width:0.3985;stroke-linecap:butt;stroke-linejoin:miter;stroke:rgb(0%,0%,0%);stroke-opacity:1;stroke-miterlimit:10;" d="M 121.89075 -127.558719 C 121.89075 -122.863406 118.082156 -119.054812 113.386844 -119.054812 C 108.691531 -119.054812 104.882937 -122.863406 104.882937 -127.558719 C 104.882937 -132.257937 108.691531 -136.066531 113.386844 -136.066531 C 118.082156 -136.066531 121.89075 -132.257937 121.89075 -127.558719 Z M 121.89075 -127.558719 " transform="matrix(1,0,0,-1,10.703,10.703)"/>
<path style=" stroke:none;fill-rule:nonzero;fill:rgb(89.99939%,89.99939%,89.99939%);fill-opacity:1;" d="M 132.59375 180.785156 C 132.59375 176.085938 128.785156 172.28125 124.089844 172.28125 C 119.394531 172.28125 115.585938 176.085938 115.585938 180.785156 C 115.585938 185.480469 119.394531 189.289062 124.089844 189.289062 C 128.785156 189.289062 132.59375 185.480469 132.59375 180.785156 Z M 132.59375 180.785156 "/>
<g clip-path="url(#clip7)" clip-rule="nonzero">
<path style="fill:none;stroke-width:0.3985;stroke-linecap:butt;stroke-linejoin:miter;stroke:rgb(0%,0%,0%);stroke-opacity:1;stroke-miterlimit:10;" d="M 121.89075 -170.082156 C 121.89075 -165.382937 118.082156 -161.57825 113.386844 -161.57825 C 108.691531 -161.57825 104.882937 -165.382937 104.882937 -170.082156 C 104.882937 -174.777469 108.691531 -178.586062 113.386844 -178.586062 C 118.082156 -178.586062 121.89075 -174.777469 121.89075 -170.082156 Z M 121.89075 -170.082156 " transform="matrix(1,0,0,-1,10.703,10.703)"/>
</g>
<path style=" stroke:none;fill-rule:nonzero;fill:rgb(89.99939%,89.99939%,89.99939%);fill-opacity:1;" d="M 160.941406 10.703125 C 160.941406 6.007812 157.132812 2.199219 152.4375 2.199219 C 147.742188 2.199219 143.933594 6.007812 143.933594 10.703125 C 143.933594 15.398438 147.742188 19.207031 152.4375 19.207031 C 157.132812 19.207031 160.941406 15.398438 160.941406 10.703125 Z M 160.941406 10.703125 "/>
<g clip-path="url(#clip8)" clip-rule="nonzero">
<path style="fill:none;stroke-width:0.3985;stroke-linecap:butt;stroke-linejoin:miter;stroke:rgb(0%,0%,0%);stroke-opacity:1;stroke-miterlimit:10;" d="M 150.238406 -0.000125 C 150.238406 4.695188 146.429812 8.503781 141.7345 8.503781 C 137.039187 8.503781 133.230594 4.695188 133.230594 -0.000125 C 133.230594 -4.695437 137.039187 -8.504031 141.7345 -8.504031 C 146.429812 -8.504031 150.238406 -4.695437 150.238406 -0.000125 Z M 150.238406 -0.000125 " transform="matrix(1,0,0,-1,10.703,10.703)"/>
</g>
<path style=" stroke:none;fill-rule:nonzero;fill:rgb(89.99939%,89.99939%,89.99939%);fill-opacity:1;" d="M 160.941406 53.222656 C 160.941406 48.527344 157.132812 44.71875 152.4375 44.71875 C 147.742188 44.71875 143.933594 48.527344 143.933594 53.222656 C 143.933594 57.921875 147.742188 61.726562 152.4375 61.726562 C 157.132812 61.726562 160.941406 57.921875 160.941406 53.222656 Z M 160.941406 53.222656 "/>
<g clip-path="url(#clip9)" clip-rule="nonzero">
<path style="fill:none;stroke-width:0.3985;stroke-linecap:butt;stroke-linejoin:miter;stroke:rgb(0%,0%,0%);stroke-opacity:1;stroke-miterlimit:10;" d="M 150.238406 -42.519656 C 150.238406 -37.824344 146.429812 -34.01575 141.7345 -34.01575 C 137.039187 -34.01575 133.230594 -37.824344 133.230594 -42.519656 C 133.230594 -47.218875 137.039187 -51.023562 141.7345 -51.023562 C 146.429812 -51.023562 150.238406 -47.218875 150.238406 -42.519656 Z M 150.238406 -42.519656 " transform="matrix(1,0,0,-1,10.703,10.703)"/>
</g>
<path style=" stroke:none;fill-rule:nonzero;fill:rgb(89.99939%,89.99939%,89.99939%);fill-opacity:1;" d="M 160.941406 95.742188 C 160.941406 91.046875 157.132812 87.238281 152.4375 87.238281 C 147.742188 87.238281 143.933594 91.046875 143.933594 95.742188 C 143.933594 100.441406 147.742188 104.246094 152.4375 104.246094 C 157.132812 104.246094 160.941406 100.441406 160.941406 95.742188 Z M 160.941406 95.742188 "/>
<g clip-path="url(#clip10)" clip-rule="nonzero">
<path style="fill:none;stroke-width:0.3985;stroke-linecap:butt;stroke-linejoin:miter;stroke:rgb(0%,0%,0%);stroke-opacity:1;stroke-miterlimit:10;" d="M 150.238406 -85.039187 C 150.238406 -80.343875 146.429812 -76.535281 141.7345 -76.535281 C 137.039187 -76.535281 133.230594 -80.343875 133.230594 -85.039187 C 133.230594 -89.738406 137.039187 -93.543094 141.7345 -93.543094 C 146.429812 -93.543094 150.238406 -89.738406 150.238406 -85.039187 Z M 150.238406 -85.039187 " transform="matrix(1,0,0,-1,10.703,10.703)"/>
</g>
<path style=" stroke:none;fill-rule:nonzero;fill:rgb(89.99939%,89.99939%,89.99939%);fill-opacity:1;" d="M 160.941406 138.261719 C 160.941406 133.566406 157.132812 129.757812 152.4375 129.757812 C 147.742188 129.757812 143.933594 133.566406 143.933594 138.261719 C 143.933594 142.960938 147.742188 146.769531 152.4375 146.769531 C 157.132812 146.769531 160.941406 142.960938 160.941406 138.261719 Z M 160.941406 138.261719 "/>
<g clip-path="url(#clip11)" clip-rule="nonzero">
<path style="fill:none;stroke-width:0.3985;stroke-linecap:butt;stroke-linejoin:miter;stroke:rgb(0%,0%,0%);stroke-opacity:1;stroke-miterlimit:10;" d="M 150.238406 -127.558719 C 150.238406 -122.863406 146.429812 -119.054812 141.7345 -119.054812 C 137.039187 -119.054812 133.230594 -122.863406 133.230594 -127.558719 C 133.230594 -132.257937 137.039187 -136.066531 141.7345 -136.066531 C 146.429812 -136.066531 150.238406 -132.257937 150.238406 -127.558719 Z M 150.238406 -127.558719 " transform="matrix(1,0,0,-1,10.703,10.703)"/>
</g>
<path style=" stroke:none;fill-rule:nonzero;fill:rgb(89.99939%,89.99939%,89.99939%);fill-opacity:1;" d="M 160.941406 180.785156 C 160.941406 176.085938 157.132812 172.28125 152.4375 172.28125 C 147.742188 172.28125 143.933594 176.085938 143.933594 180.785156 C 143.933594 185.480469 147.742188 189.289062 152.4375 189.289062 C 157.132812 189.289062 160.941406 185.480469 160.941406 180.785156 Z M 160.941406 180.785156 "/>
<g clip-path="url(#clip12)" clip-rule="nonzero">
<path style="fill:none;stroke-width:0.3985;stroke-linecap:butt;stroke-linejoin:miter;stroke:rgb(0%,0%,0%);stroke-opacity:1;stroke-miterlimit:10;" d="M 150.238406 -170.082156 C 150.238406 -165.382937 146.429812 -161.57825 141.7345 -161.57825 C 137.039187 -161.57825 133.230594 -165.382937 133.230594 -170.082156 C 133.230594 -174.777469 137.039187 -178.586062 141.7345 -178.586062 C 146.429812 -178.586062 150.238406 -174.777469 150.238406 -170.082156 Z M 150.238406 -170.082156 " transform="matrix(1,0,0,-1,10.703,10.703)"/>
</g>
</g>
</svg>
