<?xml version="1.0" encoding="UTF-8"?>
<svg width="239.29mm" height="282.26mm" version="1.1" viewBox="0 0 239.29 282.26" xmlns="http://www.w3.org/2000/svg" xmlns:cc="http://creativecommons.org/ns#" xmlns:dc="http://purl.org/dc/elements/1.1/" xmlns:rdf="http://www.w3.org/1999/02/22-rdf-syntax-ns#">
<metadata>
<rdf:RDF>
<cc:Work rdf:about="">
<dc:format>image/svg+xml</dc:format>
<dc:type rdf:resource="http://purl.org/dc/dcmitype/StillImage"/>
<dc:title/>
</cc:Work>
</rdf:RDF>
</metadata>
<g transform="translate(-30.353 -5.8692)">
<g transform="matrix(.3952 0 0 .3952 -63.41 -6.759)" aria-label="+---[RSA 4096]----+ |   =o.==...o=    | |. = . o=+o.. =   | | = + + o=.E o.   | |  o + B. +.o=    | |   . + .S  o.o   | |    .  .     .. o| |            .  +.| |           . .o o| |          ... .o.| +----[SHA256]-----+">
<path d="m253.19 41.98v11.562h11.589v4.4271h-11.589v11.562h-4.375v-11.562h-11.562v-4.4271h11.562v-11.562z" style="font-feature-settings:normal;font-variant-caps:normal;font-variant-ligatures:normal;font-variant-numeric:normal"/>
<path d="m276.34 55.73h13.568v4.2708h-13.568z" style="font-feature-settings:normal;font-variant-caps:normal;font-variant-ligatures:normal;font-variant-numeric:normal"/>
<path d="m308.45 55.73h13.568v4.2708h-13.568z" style="font-feature-settings:normal;font-variant-caps:normal;font-variant-ligatures:normal;font-variant-numeric:normal"/>
<path d="m340.56 55.73h13.568v4.2708h-13.568z" style="font-feature-settings:normal;font-variant-caps:normal;font-variant-ligatures:normal;font-variant-numeric:normal"/>
<path d="m375.46 31.954h11.042v3.724h-6.25v40.104h6.25v3.724h-11.042z" style="font-feature-settings:normal;font-variant-caps:normal;font-variant-ligatures:normal;font-variant-numeric:normal"/>
<path d="m415.3 54.115q2.0312 0.52083 3.4635 1.9792 1.4323 1.4323 3.5677 5.7552l5.2864 10.625h-5.651l-4.6354-9.8177q-2.0052-4.1927-3.6198-5.3906-1.5885-1.224-4.1667-1.224h-5.026v16.432h-5.2865v-38.88h10.833q6.4062 0 9.8177 2.8906 3.4115 2.8906 3.4115 8.3594 0 3.8542-2.1094 6.3021-2.0833 2.4219-5.8854 2.9688zm-10.781-16.198v13.802h5.7552q3.776 0 5.625-1.6927 1.849-1.6927 1.849-5.1823 0-3.3594-1.9792-5.1302-1.9531-1.7969-5.7031-1.7969z" style="font-feature-settings:normal;font-variant-caps:normal;font-variant-ligatures:normal;font-variant-numeric:normal"/>
<path d="m453.97 34.923v5.3385q-2.3958-1.5365-4.8177-2.3177-2.3958-0.78125-4.8438-0.78125-3.724 0-5.8854 1.7448-2.1615 1.7188-2.1615 4.6615 0 2.5781 1.4062 3.9323 1.4323 1.3542 5.3125 2.2656l2.7604 0.625q5.4688 1.276 7.9688 4.0104t2.5 7.4479q0 5.5469-3.4375 8.4635t-10 2.9167q-2.7344 0-5.4948-0.59896-2.7604-0.57292-5.5469-1.7448v-5.599q2.9948 1.901 5.651 2.7865 2.6823 0.88542 5.3906 0.88542 3.9844 0 6.1979-1.7708 2.2135-1.7969 2.2135-5 0-2.9167-1.5365-4.4531-1.5104-1.5365-5.2864-2.3698l-2.8125-0.65104q-5.4167-1.224-7.8646-3.6979-2.4479-2.474-2.4479-6.6406 0-5.2083 3.4896-8.3333 3.5156-3.151 9.3229-3.151 2.2396 0 4.7135 0.52083 2.474 0.49479 5.2083 1.5104z" style="font-feature-settings:normal;font-variant-caps:normal;font-variant-ligatures:normal;font-variant-numeric:normal"/>
<path d="m475.77 38.23-5.5469 19.896h11.094zm-3.1771-4.6354h6.3802l11.901 38.88h-5.4427l-2.8646-10.13h-13.62l-2.8125 10.13h-5.4427z" style="font-feature-settings:normal;font-variant-caps:normal;font-variant-ligatures:normal;font-variant-numeric:normal"/>
<path d="m543.09 38.386-12.266 20.547h12.266zm-0.85937-4.7917h6.0938v25.339h5.1823v4.2708h-5.1823v9.2708h-5.2344v-9.2708h-16.484v-4.974z" style="font-feature-settings:normal;font-variant-caps:normal;font-variant-ligatures:normal;font-variant-numeric:normal"/>
<path d="m568.63 52.943q0-1.4323 0.98958-2.474 1.0156-1.0417 2.4219-1.0417 1.4583 0 2.5 1.0417 1.0417 1.0417 1.0417 2.474 0 1.4583-1.0417 2.474-1.0156 1.0156-2.5 1.0156-1.4583 0-2.4479-0.98958-0.96354-0.98958-0.96354-2.5zm3.4635-15.885q-3.6719 0-5.4948 3.9583-1.7969 3.9583-1.7969 12.057 0 8.0729 1.7969 12.031 1.8229 3.9583 5.4948 3.9583 3.6979 0 5.4948-3.9583 1.8229-3.9583 1.8229-12.031 0-8.099-1.8229-12.057-1.7969-3.9583-5.4948-3.9583zm0-4.1667q6.224 0 9.401 5.1042 3.2031 5.1042 3.2031 15.078 0 9.9479-3.2031 15.052-3.1771 5.1042-9.401 5.1042t-9.401-5.1042q-3.1771-5.1042-3.1771-15.052 0-9.974 3.1771-15.078 3.1771-5.1042 9.401-5.1042z" style="font-feature-settings:normal;font-variant-caps:normal;font-variant-ligatures:normal;font-variant-numeric:normal"/>
<path d="m603.68 55.235q3.3594 0 5.2604-2.4219 1.9271-2.4219 1.9271-6.6927 0-4.2708-1.9271-6.6927-1.901-2.4219-5.2604-2.4219-3.4896 0-5.2604 2.3177-1.7708 2.2917-1.7708 6.7969 0 4.5312 1.7448 6.8229 1.7708 2.2917 5.2865 2.2917zm-9.375 16.432v-4.8438q1.6406 0.96354 3.4896 1.4844 1.849 0.49479 3.8542 0.49479 5 0 7.5521-3.75 2.5781-3.776 2.5781-11.094-1.224 2.6042-3.4375 4.0104-2.2135 1.3802-5.0781 1.3802-5.625 0-8.724-3.4635-3.0729-3.4635-3.0729-9.8177 0-6.276 3.151-9.7135 3.1771-3.4635 8.9583-3.4635 6.7708 0 9.9219 4.8698t3.151 15.313q0 9.8177-3.8021 15-3.776 5.1562-10.99 5.1562-1.901 0-3.8281-0.41667-1.9271-0.39062-3.724-1.1458z" style="font-feature-settings:normal;font-variant-caps:normal;font-variant-ligatures:normal;font-variant-numeric:normal"/>
<path d="m646.08 34.454v4.8438q-1.6406-0.96354-3.4896-1.4583-1.849-0.52083-3.8542-0.52083-5 0-7.5781 3.776-2.5781 3.75-2.5781 11.068 1.25-2.6042 3.4635-3.9844 2.2135-1.4062 5.0781-1.4062 5.625 0 8.6979 3.4635 3.099 3.4375 3.099 9.7656 0 6.3021-3.1771 9.7656-3.1771 3.4635-8.9323 3.4635-6.7708 0-9.9219-4.8438-3.151-4.8698-3.151-15.313 0-9.8438 3.776-15 3.8021-5.1823 10.99-5.1823 1.9271 0 3.8542 0.41667 1.9271 0.39062 3.724 1.1458zm-9.375 16.432q-3.3594 0-5.2865 2.4219-1.9271 2.4219-1.9271 6.6927 0 4.2708 1.9271 6.6927 1.9271 2.4219 5.2865 2.4219 3.4896 0 5.2604-2.2917 1.7708-2.3177 1.7708-6.8229 0-4.5313-1.7708-6.8229-1.7708-2.2917-5.2604-2.2917z" style="font-feature-settings:normal;font-variant-caps:normal;font-variant-ligatures:normal;font-variant-numeric:normal"/>
<path d="m672.43 31.954v47.552h-11.042v-3.724h6.25v-40.104h-6.25v-3.724z" style="font-feature-settings:normal;font-variant-caps:normal;font-variant-ligatures:normal;font-variant-numeric:normal"/>
<path d="m693.76 55.73h13.568v4.2708h-13.568z" style="font-feature-settings:normal;font-variant-caps:normal;font-variant-ligatures:normal;font-variant-numeric:normal"/>
<path d="m725.87 55.73h13.568v4.2708h-13.568z" style="font-feature-settings:normal;font-variant-caps:normal;font-variant-ligatures:normal;font-variant-numeric:normal"/>
<path d="m757.98 55.73h13.568v4.2708h-13.568z" style="font-feature-settings:normal;font-variant-caps:normal;font-variant-ligatures:normal;font-variant-numeric:normal"/>
<path d="m790.09 55.73h13.568v4.2708h-13.568z" style="font-feature-settings:normal;font-variant-caps:normal;font-variant-ligatures:normal;font-variant-numeric:normal"/>
<path d="m831.16 41.98v11.562h11.589v4.4271h-11.589v11.562h-4.375v-11.562h-11.562v-4.4271h11.562v-11.562z" style="font-feature-settings:normal;font-variant-caps:normal;font-variant-ligatures:normal;font-variant-numeric:normal"/>
<path d="m253.24 98.386v53.333h-4.4792v-53.333z" style="font-feature-settings:normal;font-variant-caps:normal;font-variant-ligatures:normal;font-variant-numeric:normal"/>
<path d="m365.69 125.5h27.526v4.4792h-27.526zm0-10.573h27.526v4.4271h-27.526z" style="font-feature-settings:normal;font-variant-caps:normal;font-variant-ligatures:normal;font-variant-numeric:normal"/>
<path d="m411.55 113.33q-3.6458 0-5.5208 2.8385t-1.875 8.4115q0 5.5469 1.875 8.4115 1.875 2.8385 5.5208 2.8385 3.6719 0 5.5469-2.8385 1.875-2.8646 1.875-8.4115 0-5.5729-1.875-8.4115t-5.5469-2.8385zm0-4.0625q6.0677 0 9.2708 3.9323 3.2292 3.9323 3.2292 11.38 0 7.474-3.2031 11.406-3.2031 3.9062-9.2969 3.9062-6.0677 0-9.2708-3.9062-3.2031-3.9323-3.2031-11.406 0-7.4479 3.2031-11.38 3.2031-3.9323 9.2708-3.9323z" style="font-feature-settings:normal;font-variant-caps:normal;font-variant-ligatures:normal;font-variant-numeric:normal"/>
<path d="m440.35 131.2h6.5625v7.9427h-6.5625z" style="font-feature-settings:normal;font-variant-caps:normal;font-variant-ligatures:normal;font-variant-numeric:normal"/>
<path d="m462.02 125.5h27.526v4.4792h-27.526zm0-10.573h27.526v4.4271h-27.526z" style="font-feature-settings:normal;font-variant-caps:normal;font-variant-ligatures:normal;font-variant-numeric:normal"/>
<path d="m494.13 125.5h27.526v4.4792h-27.526zm0-10.573h27.526v4.4271h-27.526z" style="font-feature-settings:normal;font-variant-caps:normal;font-variant-ligatures:normal;font-variant-numeric:normal"/>
<path d="m536.68 131.2h6.5625v7.9427h-6.5625z" style="font-feature-settings:normal;font-variant-caps:normal;font-variant-ligatures:normal;font-variant-numeric:normal"/>
<path d="m568.79 131.2h6.5625v7.9427h-6.5625z" style="font-feature-settings:normal;font-variant-caps:normal;font-variant-ligatures:normal;font-variant-numeric:normal"/>
<path d="m600.9 131.2h6.5625v7.9427h-6.5625z" style="font-feature-settings:normal;font-variant-caps:normal;font-variant-ligatures:normal;font-variant-numeric:normal"/>
<path d="m636.32 113.33q-3.6458 0-5.5208 2.8385t-1.875 8.4115q0 5.5469 1.875 8.4115 1.875 2.8385 5.5208 2.8385 3.6719 0 5.5469-2.8385 1.875-2.8646 1.875-8.4115 0-5.5729-1.875-8.4115t-5.5469-2.8385zm0-4.0625q6.0677 0 9.2708 3.9323 3.2292 3.9323 3.2292 11.38 0 7.474-3.2031 11.406-3.2031 3.9062-9.2969 3.9062-6.0677 0-9.2708-3.9062-3.2031-3.9323-3.2031-11.406 0-7.4479 3.2031-11.38 3.2031-3.9323 9.2708-3.9323z" style="font-feature-settings:normal;font-variant-caps:normal;font-variant-ligatures:normal;font-variant-numeric:normal"/>
<path d="m654.67 125.5h27.526v4.4792h-27.526zm0-10.573h27.526v4.4271h-27.526z" style="font-feature-settings:normal;font-variant-caps:normal;font-variant-ligatures:normal;font-variant-numeric:normal"/>
<path d="m831.21 98.386v53.333h-4.4792v-53.333z" style="font-feature-settings:normal;font-variant-caps:normal;font-variant-ligatures:normal;font-variant-numeric:normal"/>
<path d="m253.24 165.05v53.333h-4.4792v-53.333z" style="font-feature-settings:normal;font-variant-caps:normal;font-variant-ligatures:normal;font-variant-numeric:normal"/>
<path d="m279.8 197.87h6.5625v7.9427h-6.5625z" style="font-feature-settings:normal;font-variant-caps:normal;font-variant-ligatures:normal;font-variant-numeric:normal"/>
<path d="m333.58 192.16h27.526v4.4792h-27.526zm0-10.573h27.526v4.4271h-27.526z" style="font-feature-settings:normal;font-variant-caps:normal;font-variant-ligatures:normal;font-variant-numeric:normal"/>
<path d="m408.24 197.87h6.5625v7.9427h-6.5625z" style="font-feature-settings:normal;font-variant-caps:normal;font-variant-ligatures:normal;font-variant-numeric:normal"/>
<path d="m475.77 180q-3.6458 0-5.5208 2.8385-1.875 2.8386-1.875 8.4115 0 5.5469 1.875 8.4115 1.875 2.8385 5.5208 2.8385 3.6719 0 5.5469-2.8385 1.875-2.8646 1.875-8.4115 0-5.5729-1.875-8.4115-1.875-2.8385-5.5469-2.8385zm0-4.0625q6.0677 0 9.2708 3.9323 3.2292 3.9323 3.2292 11.38 0 7.474-3.2031 11.406-3.2031 3.9062-9.2969 3.9062-6.0677 0-9.2708-3.9062-3.2031-3.9323-3.2031-11.406 0-7.4479 3.2031-11.38 3.2031-3.9323 9.2708-3.9323z" style="font-feature-settings:normal;font-variant-caps:normal;font-variant-ligatures:normal;font-variant-numeric:normal"/>
<path d="m494.13 192.16h27.526v4.4792h-27.526zm0-10.573h27.526v4.4271h-27.526z" style="font-feature-settings:normal;font-variant-caps:normal;font-variant-ligatures:normal;font-variant-numeric:normal"/>
<path d="m542.17 175.31v11.562h11.589v4.4271h-11.589v11.562h-4.375v-11.562h-11.563v-4.4271h11.563v-11.562z" style="font-feature-settings:normal;font-variant-caps:normal;font-variant-ligatures:normal;font-variant-numeric:normal"/>
<path d="m572.1 180q-3.6458 0-5.5208 2.8385-1.875 2.8386-1.875 8.4115 0 5.5469 1.875 8.4115 1.875 2.8385 5.5208 2.8385 3.6719 0 5.5469-2.8385 1.875-2.8646 1.875-8.4115 0-5.5729-1.875-8.4115-1.875-2.8385-5.5469-2.8385zm0-4.0625q6.0677 0 9.2708 3.9323 3.2292 3.9323 3.2292 11.38 0 7.474-3.2031 11.406-3.2031 3.9062-9.2969 3.9062-6.0677 0-9.2708-3.9062-3.2031-3.9323-3.2031-11.406 0-7.4479 3.2031-11.38 3.2031-3.9323 9.2708-3.9323z" style="font-feature-settings:normal;font-variant-caps:normal;font-variant-ligatures:normal;font-variant-numeric:normal"/>
<path d="m600.9 197.87h6.5625v7.9427h-6.5625z" style="font-feature-settings:normal;font-variant-caps:normal;font-variant-ligatures:normal;font-variant-numeric:normal"/>
<path d="m633.01 197.87h6.5625v7.9427h-6.5625z" style="font-feature-settings:normal;font-variant-caps:normal;font-variant-ligatures:normal;font-variant-numeric:normal"/>
<path d="m686.78 192.16h27.526v4.4792h-27.526zm0-10.573h27.526v4.4271h-27.526z" style="font-feature-settings:normal;font-variant-caps:normal;font-variant-ligatures:normal;font-variant-numeric:normal"/>
<path d="m831.21 165.05v53.333h-4.4792v-53.333z" style="font-feature-settings:normal;font-variant-caps:normal;font-variant-ligatures:normal;font-variant-numeric:normal"/>
<path d="m253.24 231.72v53.333h-4.4792v-53.333z" style="font-feature-settings:normal;font-variant-caps:normal;font-variant-ligatures:normal;font-variant-numeric:normal"/>
<path d="m301.47 258.83h27.526v4.4792h-27.526zm0-10.573h27.526v4.4271h-27.526z" style="font-feature-settings:normal;font-variant-caps:normal;font-variant-ligatures:normal;font-variant-numeric:normal"/>
<path d="m381.63 241.98v11.562h11.589v4.4271h-11.589v11.562h-4.375v-11.562h-11.562v-4.4271h11.562v-11.562z" style="font-feature-settings:normal;font-variant-caps:normal;font-variant-ligatures:normal;font-variant-numeric:normal"/>
<path d="m445.85 241.98v11.562h11.589v4.4271h-11.589v11.562h-4.375v-11.562h-11.562v-4.4271h11.562v-11.562z" style="font-feature-settings:normal;font-variant-caps:normal;font-variant-ligatures:normal;font-variant-numeric:normal"/>
<path d="m507.88 246.67q-3.6458 0-5.5208 2.8386-1.875 2.8385-1.875 8.4114 0 5.5469 1.875 8.4115 1.875 2.8386 5.5208 2.8386 3.6719 0 5.5469-2.8386 1.875-2.8646 1.875-8.4115 0-5.5729-1.875-8.4114-1.875-2.8386-5.5469-2.8386zm0-4.0625q6.0677 0 9.2708 3.9323 3.2292 3.9323 3.2292 11.38 0 7.474-3.2031 11.406-3.2031 3.9062-9.2969 3.9062-6.0677 0-9.2708-3.9062-3.2031-3.9323-3.2031-11.406 0-7.4479 3.2031-11.38 3.2031-3.9323 9.2708-3.9323z" style="font-feature-settings:normal;font-variant-caps:normal;font-variant-ligatures:normal;font-variant-numeric:normal"/>
<path d="m526.24 258.83h27.526v4.4792h-27.526zm0-10.573h27.526v4.4271h-27.526z" style="font-feature-settings:normal;font-variant-caps:normal;font-variant-ligatures:normal;font-variant-numeric:normal"/>
<path d="m568.79 264.53h6.5625v7.9427h-6.5625z" style="font-feature-settings:normal;font-variant-caps:normal;font-variant-ligatures:normal;font-variant-numeric:normal"/>
<path d="m593.29 233.59h23.073v4.4271h-17.812v11.51h17.031v4.4271h-17.031v14.089h18.307v4.4271h-23.568z" style="font-feature-settings:normal;font-variant-caps:normal;font-variant-ligatures:normal;font-variant-numeric:normal"/>
<path d="m668.42 246.67q-3.6458 0-5.5208 2.8386-1.875 2.8385-1.875 8.4114 0 5.5469 1.875 8.4115 1.875 2.8386 5.5208 2.8386 3.6719 0 5.5469-2.8386 1.875-2.8646 1.875-8.4115 0-5.5729-1.875-8.4114-1.875-2.8386-5.5469-2.8386zm0-4.0625q6.0677 0 9.2708 3.9323 3.2292 3.9323 3.2292 11.38 0 7.474-3.2031 11.406-3.2031 3.9062-9.2969 3.9062-6.0677 0-9.2708-3.9062-3.2031-3.9323-3.2031-11.406 0-7.4479 3.2031-11.38 3.2031-3.9323 9.2708-3.9323z" style="font-feature-settings:normal;font-variant-caps:normal;font-variant-ligatures:normal;font-variant-numeric:normal"/>
<path d="m697.23 264.53h6.5625v7.9427h-6.5625z" style="font-feature-settings:normal;font-variant-caps:normal;font-variant-ligatures:normal;font-variant-numeric:normal"/>
<path d="m831.21 231.72v53.333h-4.4792v-53.333z" style="font-feature-settings:normal;font-variant-caps:normal;font-variant-ligatures:normal;font-variant-numeric:normal"/>
<path d="m253.24 298.39v53.333h-4.4792v-53.333z" style="font-feature-settings:normal;font-variant-caps:normal;font-variant-ligatures:normal;font-variant-numeric:normal"/>
<path d="m347.33 313.33q-3.6458 0-5.5208 2.8385t-1.875 8.4115q0 5.5469 1.875 8.4115 1.875 2.8385 5.5208 2.8385 3.6719 0 5.5469-2.8385 1.875-2.8646 1.875-8.4115 0-5.5729-1.875-8.4115t-5.5469-2.8385zm0-4.0625q6.0677 0 9.2708 3.9323 3.2292 3.9323 3.2292 11.38 0 7.474-3.2031 11.406-3.2031 3.9062-9.2969 3.9062-6.0677 0-9.2708-3.9062-3.2031-3.9323-3.2031-11.406 0-7.4479 3.2031-11.38 3.2031-3.9323 9.2708-3.9323z" style="font-feature-settings:normal;font-variant-caps:normal;font-variant-ligatures:normal;font-variant-numeric:normal"/>
<path d="m413.74 308.65v11.562h11.589v4.4271h-11.589v11.562h-4.375v-11.562h-11.563v-4.4271h11.563v-11.562z" style="font-feature-settings:normal;font-variant-caps:normal;font-variant-ligatures:normal;font-variant-numeric:normal"/>
<path d="m469.34 320.57v14.245h6.224q4.5833 0 6.5365-1.5885 1.9531-1.6146 1.9531-5.2865 0-3.8021-2.0573-5.5729-2.0573-1.7969-6.4323-1.7969zm0-15.99v11.719h6.1198q3.8021 0 5.4948-1.4583 1.7188-1.4583 1.7188-4.7135 0-2.9427-1.6927-4.2448-1.6667-1.3021-5.5208-1.3021zm-5.2865-4.3229h11.51q5.9635 0 9.1927 2.5781 3.2292 2.5781 3.2292 7.2917 0 3.5677-1.7188 5.625-1.6927 2.0573-5.1042 2.5781 3.8281 0.57291 5.9896 3.2812 2.1875 2.6823 2.1875 6.849 0 5.2865-3.4635 7.9948-3.4635 2.6823-10.312 2.6823h-11.51z" style="font-feature-settings:normal;font-variant-caps:normal;font-variant-ligatures:normal;font-variant-numeric:normal"/>
<path d="m504.57 331.2h6.5625v7.9427h-6.5625z" style="font-feature-settings:normal;font-variant-caps:normal;font-variant-ligatures:normal;font-variant-numeric:normal"/>
<path d="m574.28 308.65v11.562h11.589v4.4271h-11.589v11.562h-4.375v-11.562h-11.562v-4.4271h11.562v-11.562z" style="font-feature-settings:normal;font-variant-caps:normal;font-variant-ligatures:normal;font-variant-numeric:normal"/>
<path d="m600.9 331.2h6.5625v7.9427h-6.5625z" style="font-feature-settings:normal;font-variant-caps:normal;font-variant-ligatures:normal;font-variant-numeric:normal"/>
<path d="m636.32 313.33q-3.6458 0-5.5208 2.8385t-1.875 8.4115q0 5.5469 1.875 8.4115 1.875 2.8385 5.5208 2.8385 3.6719 0 5.5469-2.8385 1.875-2.8646 1.875-8.4115 0-5.5729-1.875-8.4115t-5.5469-2.8385zm0-4.0625q6.0677 0 9.2708 3.9323 3.2292 3.9323 3.2292 11.38 0 7.474-3.2031 11.406-3.2031 3.9062-9.2969 3.9062-6.0677 0-9.2708-3.9062-3.2031-3.9323-3.2031-11.406 0-7.4479 3.2031-11.38 3.2031-3.9323 9.2708-3.9323z" style="font-feature-settings:normal;font-variant-caps:normal;font-variant-ligatures:normal;font-variant-numeric:normal"/>
<path d="m654.67 325.5h27.526v4.4792h-27.526zm0-10.573h27.526v4.4271h-27.526z" style="font-feature-settings:normal;font-variant-caps:normal;font-variant-ligatures:normal;font-variant-numeric:normal"/>
<path d="m831.21 298.39v53.333h-4.4792v-53.333z" style="font-feature-settings:normal;font-variant-caps:normal;font-variant-ligatures:normal;font-variant-numeric:normal"/>
<path d="m253.24 365.05v53.333h-4.4792v-53.333z" style="font-feature-settings:normal;font-variant-caps:normal;font-variant-ligatures:normal;font-variant-numeric:normal"/>
<path d="m376.13 397.87h6.5625v7.9427h-6.5625z" style="font-feature-settings:normal;font-variant-caps:normal;font-variant-ligatures:normal;font-variant-numeric:normal"/>
<path d="m445.85 375.31v11.562h11.589v4.4271h-11.589v11.562h-4.375v-11.562h-11.562v-4.4271h11.562v-11.562z" style="font-feature-settings:normal;font-variant-caps:normal;font-variant-ligatures:normal;font-variant-numeric:normal"/>
<path d="m504.57 397.87h6.5625v7.9427h-6.5625z" style="font-feature-settings:normal;font-variant-caps:normal;font-variant-ligatures:normal;font-variant-numeric:normal"/>
<path d="m550.3 368.26v5.3385q-2.3958-1.5365-4.8177-2.3177-2.3958-0.78125-4.8438-0.78125-3.724 0-5.8854 1.7448-2.1615 1.7188-2.1615 4.6614 0 2.5781 1.4062 3.9323 1.4323 1.3542 5.3125 2.2656l2.7604 0.625q5.4688 1.276 7.9688 4.0104 2.5 2.7344 2.5 7.4479 0 5.5469-3.4375 8.4635-3.4375 2.9167-10 2.9167-2.7344 0-5.4948-0.59895-2.7604-0.57292-5.5469-1.7448v-5.599q2.9948 1.901 5.651 2.7864 2.6823 0.88542 5.3906 0.88542 3.9844 0 6.1979-1.7708 2.2135-1.7969 2.2135-5 0-2.9167-1.5365-4.4531-1.5104-1.5365-5.2865-2.3698l-2.8125-0.65104q-5.4167-1.224-7.8646-3.6979-2.4479-2.474-2.4479-6.6406 0-5.2083 3.4896-8.3333 3.5156-3.151 9.3229-3.151 2.2396 0 4.7135 0.52083 2.474 0.4948 5.2083 1.5104z" style="font-feature-settings:normal;font-variant-caps:normal;font-variant-ligatures:normal;font-variant-numeric:normal"/>
<path d="m636.32 380q-3.6458 0-5.5208 2.8385-1.875 2.8386-1.875 8.4115 0 5.5469 1.875 8.4115 1.875 2.8385 5.5208 2.8385 3.6719 0 5.5469-2.8385 1.875-2.8646 1.875-8.4115 0-5.5729-1.875-8.4115-1.875-2.8385-5.5469-2.8385zm0-4.0625q6.0677 0 9.2708 3.9323 3.2292 3.9323 3.2292 11.38 0 7.474-3.2031 11.406-3.2031 3.9062-9.2969 3.9062-6.0677 0-9.2708-3.9062-3.2031-3.9323-3.2031-11.406 0-7.4479 3.2031-11.38 3.2031-3.9323 9.2708-3.9323z" style="font-feature-settings:normal;font-variant-caps:normal;font-variant-ligatures:normal;font-variant-numeric:normal"/>
<path d="m665.12 397.87h6.5625v7.9427h-6.5625z" style="font-feature-settings:normal;font-variant-caps:normal;font-variant-ligatures:normal;font-variant-numeric:normal"/>
<path d="m700.53 380q-3.6458 0-5.5208 2.8385-1.875 2.8386-1.875 8.4115 0 5.5469 1.875 8.4115 1.875 2.8385 5.5208 2.8385 3.6719 0 5.5469-2.8385 1.875-2.8646 1.875-8.4115 0-5.5729-1.875-8.4115-1.875-2.8385-5.5469-2.8385zm0-4.0625q6.0677 0 9.2708 3.9323 3.2292 3.9323 3.2292 11.38 0 7.474-3.2031 11.406-3.2031 3.9062-9.2969 3.9062-6.0677 0-9.2708-3.9062-3.2031-3.9323-3.2031-11.406 0-7.4479 3.2031-11.38 3.2031-3.9323 9.2708-3.9323z" style="font-feature-settings:normal;font-variant-caps:normal;font-variant-ligatures:normal;font-variant-numeric:normal"/>
<path d="m831.21 365.05v53.333h-4.4792v-53.333z" style="font-feature-settings:normal;font-variant-caps:normal;font-variant-ligatures:normal;font-variant-numeric:normal"/>
<path d="m253.24 431.72v53.333h-4.4792v-53.333z" style="font-feature-settings:normal;font-variant-caps:normal;font-variant-ligatures:normal;font-variant-numeric:normal"/>
<path d="m408.24 464.53h6.5625v7.9427h-6.5625z" style="font-feature-settings:normal;font-variant-caps:normal;font-variant-ligatures:normal;font-variant-numeric:normal"/>
<path d="m504.57 464.53h6.5625v7.9427h-6.5625z" style="font-feature-settings:normal;font-variant-caps:normal;font-variant-ligatures:normal;font-variant-numeric:normal"/>
<path d="m697.23 464.53h6.5625v7.9427h-6.5625z" style="font-feature-settings:normal;font-variant-caps:normal;font-variant-ligatures:normal;font-variant-numeric:normal"/>
<path d="m729.34 464.53h6.5625v7.9427h-6.5625z" style="font-feature-settings:normal;font-variant-caps:normal;font-variant-ligatures:normal;font-variant-numeric:normal"/>
<path d="m796.86 446.67q-3.6458 0-5.5208 2.8385t-1.875 8.4115q0 5.5469 1.875 8.4115 1.875 2.8385 5.5208 2.8385 3.6719 0 5.5469-2.8385 1.875-2.8646 1.875-8.4115 0-5.5729-1.875-8.4115t-5.5469-2.8385zm0-4.0625q6.0677 0 9.2708 3.9323 3.2292 3.9323 3.2292 11.38 0 7.474-3.2031 11.406-3.2031 3.9062-9.2969 3.9062-6.0677 0-9.2708-3.9062-3.2031-3.9323-3.2031-11.406 0-7.4479 3.2031-11.38 3.2031-3.9323 9.2708-3.9323z" style="font-feature-settings:normal;font-variant-caps:normal;font-variant-ligatures:normal;font-variant-numeric:normal"/>
<path d="m831.21 431.72v53.333h-4.4792v-53.333z" style="font-feature-settings:normal;font-variant-caps:normal;font-variant-ligatures:normal;font-variant-numeric:normal"/>
<path d="m253.24 498.39v53.333h-4.4792v-53.333z" style="font-feature-settings:normal;font-variant-caps:normal;font-variant-ligatures:normal;font-variant-numeric:normal"/>
<path d="m665.12 531.2h6.5625v7.9427h-6.5625z" style="font-feature-settings:normal;font-variant-caps:normal;font-variant-ligatures:normal;font-variant-numeric:normal"/>
<path d="m766.94 508.65v11.562h11.589v4.4271h-11.589v11.562h-4.375v-11.562h-11.562v-4.4271h11.562v-11.562z" style="font-feature-settings:normal;font-variant-caps:normal;font-variant-ligatures:normal;font-variant-numeric:normal"/>
<path d="m793.55 531.2h6.5625v7.9427h-6.5625z" style="font-feature-settings:normal;font-variant-caps:normal;font-variant-ligatures:normal;font-variant-numeric:normal"/>
<path d="m831.21 498.39v53.333h-4.4792v-53.333z" style="font-feature-settings:normal;font-variant-caps:normal;font-variant-ligatures:normal;font-variant-numeric:normal"/>
<path d="m253.24 565.05v53.333h-4.4792v-53.333z" style="font-feature-settings:normal;font-variant-caps:normal;font-variant-ligatures:normal;font-variant-numeric:normal"/>
<path d="m633.01 597.87h6.5625v7.9427h-6.5625z" style="font-feature-settings:normal;font-variant-caps:normal;font-variant-ligatures:normal;font-variant-numeric:normal"/>
<path d="m697.23 597.87h6.5625v7.9427h-6.5625z" style="font-feature-settings:normal;font-variant-caps:normal;font-variant-ligatures:normal;font-variant-numeric:normal"/>
<path d="m732.64 580q-3.6458 0-5.5208 2.8386-1.875 2.8385-1.875 8.4114 0 5.5469 1.875 8.4115 1.875 2.8385 5.5208 2.8385 3.6719 0 5.5469-2.8385 1.875-2.8646 1.875-8.4115 0-5.5729-1.875-8.4114-1.875-2.8386-5.5469-2.8386zm0-4.0625q6.0677 0 9.2708 3.9323 3.2292 3.9323 3.2292 11.38 0 7.474-3.2031 11.406-3.2031 3.9063-9.2969 3.9063-6.0677 0-9.2708-3.9063-3.2031-3.9323-3.2031-11.406 0-7.4479 3.2031-11.38 3.2031-3.9323 9.2708-3.9323z" style="font-feature-settings:normal;font-variant-caps:normal;font-variant-ligatures:normal;font-variant-numeric:normal"/>
<path d="m796.86 580q-3.6458 0-5.5208 2.8386-1.875 2.8385-1.875 8.4114 0 5.5469 1.875 8.4115 1.875 2.8385 5.5208 2.8385 3.6719 0 5.5469-2.8385 1.875-2.8646 1.875-8.4115 0-5.5729-1.875-8.4114-1.875-2.8386-5.5469-2.8386zm0-4.0625q6.0677 0 9.2708 3.9323 3.2292 3.9323 3.2292 11.38 0 7.474-3.2031 11.406-3.2031 3.9063-9.2969 3.9063-6.0677 0-9.2708-3.9063-3.2031-3.9323-3.2031-11.406 0-7.4479 3.2031-11.38 3.2031-3.9323 9.2708-3.9323z" style="font-feature-settings:normal;font-variant-caps:normal;font-variant-ligatures:normal;font-variant-numeric:normal"/>
<path d="m831.21 565.05v53.333h-4.4792v-53.333z" style="font-feature-settings:normal;font-variant-caps:normal;font-variant-ligatures:normal;font-variant-numeric:normal"/>
<path d="m253.24 631.72v53.333h-4.4792v-53.333z" style="font-feature-settings:normal;font-variant-caps:normal;font-variant-ligatures:normal;font-variant-numeric:normal"/>
<path d="m600.9 664.53h6.5625v7.9427h-6.5625z" style="font-feature-settings:normal;font-variant-caps:normal;font-variant-ligatures:normal;font-variant-numeric:normal"/>
<path d="m633.01 664.53h6.5625v7.9427h-6.5625z" style="font-feature-settings:normal;font-variant-caps:normal;font-variant-ligatures:normal;font-variant-numeric:normal"/>
<path d="m665.12 664.53h6.5625v7.9427h-6.5625z" style="font-feature-settings:normal;font-variant-caps:normal;font-variant-ligatures:normal;font-variant-numeric:normal"/>
<path d="m729.34 664.53h6.5625v7.9427h-6.5625z" style="font-feature-settings:normal;font-variant-caps:normal;font-variant-ligatures:normal;font-variant-numeric:normal"/>
<path d="m764.75 646.67q-3.6458 0-5.5208 2.8385t-1.875 8.4115q0 5.5469 1.875 8.4115 1.875 2.8385 5.5208 2.8385 3.6719 0 5.5469-2.8385 1.875-2.8646 1.875-8.4115 0-5.5729-1.875-8.4115t-5.5469-2.8385zm0-4.0625q6.0677 0 9.2708 3.9323 3.2292 3.9323 3.2292 11.38 0 7.474-3.2031 11.406-3.2031 3.9062-9.2969 3.9062-6.0677 0-9.2708-3.9062-3.2031-3.9323-3.2031-11.406 0-7.4479 3.2031-11.38 3.2031-3.9323 9.2708-3.9323z" style="font-feature-settings:normal;font-variant-caps:normal;font-variant-ligatures:normal;font-variant-numeric:normal"/>
<path d="m793.55 664.53h6.5625v7.9427h-6.5625z" style="font-feature-settings:normal;font-variant-caps:normal;font-variant-ligatures:normal;font-variant-numeric:normal"/>
<path d="m831.21 631.72v53.333h-4.4792v-53.333z" style="font-feature-settings:normal;font-variant-caps:normal;font-variant-ligatures:normal;font-variant-numeric:normal"/>
<path d="m253.19 708.65v11.562h11.589v4.4271h-11.589v11.562h-4.375v-11.562h-11.562v-4.4271h11.562v-11.562z" style="font-feature-settings:normal;font-variant-caps:normal;font-variant-ligatures:normal;font-variant-numeric:normal"/>
<path d="m276.34 722.4h13.568v4.2708h-13.568z" style="font-feature-settings:normal;font-variant-caps:normal;font-variant-ligatures:normal;font-variant-numeric:normal"/>
<path d="m308.45 722.4h13.568v4.2708h-13.568z" style="font-feature-settings:normal;font-variant-caps:normal;font-variant-ligatures:normal;font-variant-numeric:normal"/>
<path d="m340.56 722.4h13.568v4.2708h-13.568z" style="font-feature-settings:normal;font-variant-caps:normal;font-variant-ligatures:normal;font-variant-numeric:normal"/>
<path d="m372.67 722.4h13.568v4.2708h-13.568z" style="font-feature-settings:normal;font-variant-caps:normal;font-variant-ligatures:normal;font-variant-numeric:normal"/>
<path d="m407.57 698.62h11.042v3.724h-6.25v40.104h6.25v3.724h-11.042z" style="font-feature-settings:normal;font-variant-caps:normal;font-variant-ligatures:normal;font-variant-numeric:normal"/>
<path d="m453.97 701.59v5.3385q-2.3958-1.5365-4.8177-2.3177-2.3958-0.78125-4.8438-0.78125-3.724 0-5.8854 1.7448-2.1615 1.7188-2.1615 4.6615 0 2.5781 1.4062 3.9323 1.4323 1.3542 5.3125 2.2656l2.7604 0.625q5.4688 1.276 7.9688 4.0104 2.5 2.7344 2.5 7.4479 0 5.5469-3.4375 8.4635-3.4375 2.9167-10 2.9167-2.7344 0-5.4948-0.59896-2.7604-0.57292-5.5469-1.7448v-5.599q2.9948 1.901 5.651 2.7865 2.6823 0.88542 5.3906 0.88542 3.9844 0 6.1979-1.7708 2.2135-1.7969 2.2135-5 0-2.9167-1.5365-4.4531-1.5104-1.5365-5.2864-2.3698l-2.8125-0.65104q-5.4167-1.224-7.8646-3.6979-2.4479-2.474-2.4479-6.6406 0-5.2083 3.4896-8.3333 3.5156-3.151 9.3229-3.151 2.2396 0 4.7135 0.52083 2.474 0.49479 5.2083 1.5104z" style="font-feature-settings:normal;font-variant-caps:normal;font-variant-ligatures:normal;font-variant-numeric:normal"/>
<path d="m463.29 700.26h5.2865v15.938h14.401v-15.938h5.2865v38.88h-5.2865v-18.516h-14.401v18.516h-5.2865z" style="font-feature-settings:normal;font-variant-caps:normal;font-variant-ligatures:normal;font-variant-numeric:normal"/>
<path d="m507.88 704.9-5.5469 19.896h11.094zm-3.1771-4.6354h6.3802l11.901 38.88h-5.4427l-2.8646-10.13h-13.62l-2.8125 10.13h-5.4427z" style="font-feature-settings:normal;font-variant-caps:normal;font-variant-ligatures:normal;font-variant-numeric:normal"/>
<path d="m533.66 734.71h17.865v4.4271h-23.62v-4.4271q4.8698-5.1302 8.5156-9.0625 3.6458-3.9323 5.026-5.5469 2.6042-3.1771 3.5156-5.1302 0.91146-1.9792 0.91146-4.0365 0-3.2552-1.9271-5.1042-1.901-1.849-5.2344-1.849-2.3698 0-4.974 0.85937-2.6042 0.85938-5.5208 2.6042v-5.3125q2.6823-1.276 5.2604-1.9271 2.6042-0.65104 5.1302-0.65104 5.7031 0 9.1667 3.0469 3.4896 3.0208 3.4896 7.9427 0 2.5-1.1719 5-1.1458 2.5-3.75 5.5208-1.4583 1.6927-4.2448 4.6875-2.7604 2.9948-8.4375 8.9583z" style="font-feature-settings:normal;font-variant-caps:normal;font-variant-ligatures:normal;font-variant-numeric:normal"/>
<path d="m561.45 700.26h19.688v4.4271h-14.896v9.5573q1.1198-0.41667 2.2396-0.59896 1.1458-0.20834 2.2917-0.20834 6.0417 0 9.5833 3.5677t3.5417 9.6615q0 6.1458-3.724 9.6875-3.6979 3.5417-10.13 3.5417-3.099 0-5.6771-0.41667-2.5521-0.41666-4.5833-1.25v-5.3385q2.3958 1.3021 4.8177 1.9531 2.4219 0.625 4.9479 0.625 4.349 0 6.6927-2.2917 2.3698-2.2917 2.3698-6.5104 0-4.1667-2.4479-6.4844-2.4219-2.3177-6.7708-2.3177-2.1094 0-4.1146 0.49479-2.0052 0.46875-3.8281 1.4323z" style="font-feature-settings:normal;font-variant-caps:normal;font-variant-ligatures:normal;font-variant-numeric:normal"/>
<path d="m613.97 701.12v4.8438q-1.6406-0.96355-3.4896-1.4583-1.849-0.52083-3.8542-0.52083-5 0-7.5781 3.776-2.5781 3.75-2.5781 11.068 1.25-2.6042 3.4635-3.9844 2.2135-1.4062 5.0781-1.4062 5.625 0 8.6979 3.4636 3.099 3.4375 3.099 9.7656 0 6.3021-3.1771 9.7656t-8.9323 3.4635q-6.7708 0-9.9219-4.8438-3.151-4.8698-3.151-15.312 0-9.8438 3.776-15 3.8021-5.1823 10.99-5.1823 1.9271 0 3.8542 0.41666 1.9271 0.39063 3.724 1.1458zm-9.375 16.432q-3.3594 0-5.2865 2.4219-1.9271 2.4219-1.9271 6.6927 0 4.2708 1.9271 6.6927 1.9271 2.4219 5.2865 2.4219 3.4896 0 5.2604-2.2917 1.7708-2.3177 1.7708-6.8229 0-4.5312-1.7708-6.8229-1.7708-2.2917-5.2604-2.2917z" style="font-feature-settings:normal;font-variant-caps:normal;font-variant-ligatures:normal;font-variant-numeric:normal"/>
<path d="m640.33 698.62v47.552h-11.042v-3.724h6.25v-40.104h-6.25v-3.724z" style="font-feature-settings:normal;font-variant-caps:normal;font-variant-ligatures:normal;font-variant-numeric:normal"/>
<path d="m661.65 722.4h13.568v4.2708h-13.568z" style="font-feature-settings:normal;font-variant-caps:normal;font-variant-ligatures:normal;font-variant-numeric:normal"/>
<path d="m693.76 722.4h13.568v4.2708h-13.568z" style="font-feature-settings:normal;font-variant-caps:normal;font-variant-ligatures:normal;font-variant-numeric:normal"/>
<path d="m725.87 722.4h13.568v4.2708h-13.568z" style="font-feature-settings:normal;font-variant-caps:normal;font-variant-ligatures:normal;font-variant-numeric:normal"/>
<path d="m757.98 722.4h13.568v4.2708h-13.568z" style="font-feature-settings:normal;font-variant-caps:normal;font-variant-ligatures:normal;font-variant-numeric:normal"/>
<path d="m790.09 722.4h13.568v4.2708h-13.568z" style="font-feature-settings:normal;font-variant-caps:normal;font-variant-ligatures:normal;font-variant-numeric:normal"/>
<path d="m831.16 708.65v11.562h11.589v4.4271h-11.589v11.562h-4.375v-11.562h-11.562v-4.4271h11.562v-11.562z" style="font-feature-settings:normal;font-variant-caps:normal;font-variant-ligatures:normal;font-variant-numeric:normal"/>
</g>
</g>
</svg>
