<?xml version="1.0" encoding="UTF-8"?>
<svg xmlns="http://www.w3.org/2000/svg" xmlns:xlink="http://www.w3.org/1999/xlink" width="185.816pt" height="327.548pt" viewBox="0 0 185.816 327.548" version="1.1">
<defs>
<clipPath id="clip1">
  <path d="M 166 24 L 185.816406 24 L 185.816406 48 L 166 48 Z M 166 24 "/>
</clipPath>
<clipPath id="clip2">
  <path d="M 166 109 L 185.816406 109 L 185.816406 133 L 166 133 Z M 166 109 "/>
</clipPath>
<clipPath id="clip3">
  <path d="M 166 194 L 185.816406 194 L 185.816406 218 L 166 218 Z M 166 194 "/>
</clipPath>
<clipPath id="clip4">
  <path d="M 24 308 L 48 308 L 48 327.546875 L 24 327.546875 Z M 24 308 "/>
</clipPath>
<clipPath id="clip5">
  <path d="M 166 280 L 185.816406 280 L 185.816406 303 L 166 303 Z M 166 280 "/>
</clipPath>
<clipPath id="clip6">
  <path d="M 138 308 L 161 308 L 161 327.546875 L 138 327.546875 Z M 138 308 "/>
</clipPath>
</defs>
<g id="surface1">
<path style="fill:none;stroke-width:0.3985;stroke-linecap:butt;stroke-linejoin:miter;stroke:rgb(0%,0%,0%);stroke-opacity:1;stroke-miterlimit:10;" d="M -28.3455 0.00015625 C -28.3455 15.656406 -41.036906 28.347813 -56.693156 28.347813 C -72.349406 28.347813 -85.040813 15.656406 -85.040813 0.00015625 C -85.040813 -15.656094 -72.349406 -28.3475 -56.693156 -28.3475 C -41.036906 -28.3475 -28.3455 -15.656094 -28.3455 0.00015625 Z M -28.3455 0.00015625 " transform="matrix(1,0,0,-1,92.908,36.215)"/>
<path style="fill-rule:nonzero;fill:rgb(0%,0%,0%);fill-opacity:1;stroke-width:0.3985;stroke-linecap:butt;stroke-linejoin:miter;stroke:rgb(0%,0%,0%);stroke-opacity:1;stroke-miterlimit:10;" d="M -51.025188 28.347813 C -51.025188 31.476719 -53.56425 34.015781 -56.693156 34.015781 C -59.825969 34.015781 -62.361125 31.476719 -62.361125 28.347813 C -62.361125 25.215 -59.825969 22.675938 -56.693156 22.675938 C -53.56425 22.675938 -51.025188 25.215 -51.025188 28.347813 Z M -51.025188 28.347813 " transform="matrix(1,0,0,-1,92.908,36.215)"/>
<path style="fill-rule:nonzero;fill:rgb(0%,0%,0%);fill-opacity:1;stroke-width:0.3985;stroke-linecap:butt;stroke-linejoin:miter;stroke:rgb(0%,0%,0%);stroke-opacity:1;stroke-miterlimit:10;" d="M -22.677531 0.00015625 C -22.677531 3.132969 -25.216594 5.668125 -28.3455 5.668125 C -31.478313 5.668125 -34.017375 3.132969 -34.017375 0.00015625 C -34.017375 -3.132656 -31.478313 -5.667812 -28.3455 -5.667812 C -25.216594 -5.667812 -22.677531 -3.132656 -22.677531 0.00015625 Z M -22.677531 0.00015625 " transform="matrix(1,0,0,-1,92.908,36.215)"/>
<path style="fill-rule:nonzero;fill:rgb(0%,0%,0%);fill-opacity:1;stroke-width:0.3985;stroke-linecap:butt;stroke-linejoin:miter;stroke:rgb(0%,0%,0%);stroke-opacity:1;stroke-miterlimit:10;" d="M -51.025188 -28.3475 C -51.025188 -25.214687 -53.56425 -22.675625 -56.693156 -22.675625 C -59.825969 -22.675625 -62.361125 -25.214687 -62.361125 -28.3475 C -62.361125 -31.476406 -59.825969 -34.015469 -56.693156 -34.015469 C -53.56425 -34.015469 -51.025188 -31.476406 -51.025188 -28.3475 Z M -51.025188 -28.3475 " transform="matrix(1,0,0,-1,92.908,36.215)"/>
<path style="fill-rule:nonzero;fill:rgb(0%,0%,0%);fill-opacity:1;stroke-width:0.3985;stroke-linecap:butt;stroke-linejoin:miter;stroke:rgb(0%,0%,0%);stroke-opacity:1;stroke-miterlimit:10;" d="M -79.372844 0.00015625 C -79.372844 3.132969 -81.908 5.668125 -85.040813 5.668125 C -88.169719 5.668125 -90.708781 3.132969 -90.708781 0.00015625 C -90.708781 -3.132656 -88.169719 -5.667812 -85.040813 -5.667812 C -81.908 -5.667812 -79.372844 -3.132656 -79.372844 0.00015625 Z M -79.372844 0.00015625 " transform="matrix(1,0,0,-1,92.908,36.215)"/>
<path style="fill:none;stroke-width:0.3985;stroke-linecap:butt;stroke-linejoin:miter;stroke:rgb(0%,0%,0%);stroke-opacity:1;stroke-miterlimit:10;" d="M 85.041219 0.00015625 C 85.041219 15.656406 72.349812 28.347813 56.693562 28.347813 C 41.037312 28.347813 28.345906 15.656406 28.345906 0.00015625 C 28.345906 -15.656094 41.037312 -28.3475 56.693562 -28.3475 C 72.349812 -28.3475 85.041219 -15.656094 85.041219 0.00015625 Z M 85.041219 0.00015625 " transform="matrix(1,0,0,-1,92.908,36.215)"/>
<path style="fill-rule:nonzero;fill:rgb(100%,100%,100%);fill-opacity:1;stroke-width:0.3985;stroke-linecap:butt;stroke-linejoin:miter;stroke:rgb(0%,0%,0%);stroke-opacity:1;stroke-miterlimit:10;" d="M 62.361531 28.347813 C 62.361531 31.476719 59.826375 34.015781 56.693562 34.015781 C 53.56075 34.015781 51.025594 31.476719 51.025594 28.347813 C 51.025594 25.215 53.56075 22.675938 56.693562 22.675938 C 59.826375 22.675938 62.361531 25.215 62.361531 28.347813 Z M 62.361531 28.347813 " transform="matrix(1,0,0,-1,92.908,36.215)"/>
<path style=" stroke:none;fill-rule:nonzero;fill:rgb(100%,100%,100%);fill-opacity:1;" d="M 183.617188 36.214844 C 183.617188 33.082031 181.078125 30.546875 177.949219 30.546875 C 174.816406 30.546875 172.277344 33.082031 172.277344 36.214844 C 172.277344 39.347656 174.816406 41.882812 177.949219 41.882812 C 181.078125 41.882812 183.617188 39.347656 183.617188 36.214844 Z M 183.617188 36.214844 "/>
<g clip-path="url(#clip1)" clip-rule="nonzero">
<path style="fill:none;stroke-width:0.3985;stroke-linecap:butt;stroke-linejoin:miter;stroke:rgb(0%,0%,0%);stroke-opacity:1;stroke-miterlimit:10;" d="M 90.709187 0.00015625 C 90.709187 3.132969 88.170125 5.668125 85.041219 5.668125 C 81.908406 5.668125 79.369344 3.132969 79.369344 0.00015625 C 79.369344 -3.132656 81.908406 -5.667812 85.041219 -5.667812 C 88.170125 -5.667812 90.709187 -3.132656 90.709187 0.00015625 Z M 90.709187 0.00015625 " transform="matrix(1,0,0,-1,92.908,36.215)"/>
</g>
<path style="fill-rule:nonzero;fill:rgb(100%,100%,100%);fill-opacity:1;stroke-width:0.3985;stroke-linecap:butt;stroke-linejoin:miter;stroke:rgb(0%,0%,0%);stroke-opacity:1;stroke-miterlimit:10;" d="M 62.361531 -28.3475 C 62.361531 -25.214687 59.826375 -22.675625 56.693562 -22.675625 C 53.56075 -22.675625 51.025594 -25.214687 51.025594 -28.3475 C 51.025594 -31.476406 53.56075 -34.015469 56.693562 -34.015469 C 59.826375 -34.015469 62.361531 -31.476406 62.361531 -28.3475 Z M 62.361531 -28.3475 " transform="matrix(1,0,0,-1,92.908,36.215)"/>
<path style="fill-rule:nonzero;fill:rgb(100%,100%,100%);fill-opacity:1;stroke-width:0.3985;stroke-linecap:butt;stroke-linejoin:miter;stroke:rgb(0%,0%,0%);stroke-opacity:1;stroke-miterlimit:10;" d="M 34.017781 0.00015625 C 34.017781 3.132969 31.478719 5.668125 28.345906 5.668125 C 25.217 5.668125 22.677937 3.132969 22.677937 0.00015625 C 22.677937 -3.132656 25.217 -5.667812 28.345906 -5.667812 C 31.478719 -5.667812 34.017781 -3.132656 34.017781 0.00015625 Z M 34.017781 0.00015625 " transform="matrix(1,0,0,-1,92.908,36.215)"/>
<path style="fill:none;stroke-width:0.3985;stroke-linecap:butt;stroke-linejoin:miter;stroke:rgb(0%,0%,0%);stroke-opacity:1;stroke-miterlimit:10;" d="M -28.3455 -85.038906 C -28.3455 -69.386562 -41.036906 -56.695156 -56.693156 -56.695156 C -72.349406 -56.695156 -85.040813 -69.386562 -85.040813 -85.038906 C -85.040813 -100.695156 -72.349406 -113.386562 -56.693156 -113.386562 C -41.036906 -113.386562 -28.3455 -100.695156 -28.3455 -85.038906 Z M -28.3455 -85.038906 " transform="matrix(1,0,0,-1,92.908,36.215)"/>
<path style="fill-rule:nonzero;fill:rgb(100%,100%,100%);fill-opacity:1;stroke-width:0.3985;stroke-linecap:butt;stroke-linejoin:miter;stroke:rgb(0%,0%,0%);stroke-opacity:1;stroke-miterlimit:10;" d="M -51.025188 -56.695156 C -51.025188 -53.562344 -53.56425 -51.023281 -56.693156 -51.023281 C -59.825969 -51.023281 -62.361125 -53.562344 -62.361125 -56.695156 C -62.361125 -59.824062 -59.825969 -62.363125 -56.693156 -62.363125 C -53.56425 -62.363125 -51.025188 -59.824062 -51.025188 -56.695156 Z M -51.025188 -56.695156 " transform="matrix(1,0,0,-1,92.908,36.215)"/>
<path style="fill-rule:nonzero;fill:rgb(0%,0%,0%);fill-opacity:1;stroke-width:0.3985;stroke-linecap:butt;stroke-linejoin:miter;stroke:rgb(0%,0%,0%);stroke-opacity:1;stroke-miterlimit:10;" d="M -22.677531 -85.038906 C -22.677531 -81.91 -25.216594 -79.370937 -28.3455 -79.370937 C -31.478313 -79.370937 -34.017375 -81.91 -34.017375 -85.038906 C -34.017375 -88.171719 -31.478313 -90.710781 -28.3455 -90.710781 C -25.216594 -90.710781 -22.677531 -88.171719 -22.677531 -85.038906 Z M -22.677531 -85.038906 " transform="matrix(1,0,0,-1,92.908,36.215)"/>
<path style="fill-rule:nonzero;fill:rgb(0%,0%,0%);fill-opacity:1;stroke-width:0.3985;stroke-linecap:butt;stroke-linejoin:miter;stroke:rgb(0%,0%,0%);stroke-opacity:1;stroke-miterlimit:10;" d="M -51.025188 -113.386562 C -51.025188 -110.257656 -53.56425 -107.718594 -56.693156 -107.718594 C -59.825969 -107.718594 -62.361125 -110.257656 -62.361125 -113.386562 C -62.361125 -116.519375 -59.825969 -119.058437 -56.693156 -119.058437 C -53.56425 -119.058437 -51.025188 -116.519375 -51.025188 -113.386562 Z M -51.025188 -113.386562 " transform="matrix(1,0,0,-1,92.908,36.215)"/>
<path style="fill-rule:nonzero;fill:rgb(0%,0%,0%);fill-opacity:1;stroke-width:0.3985;stroke-linecap:butt;stroke-linejoin:miter;stroke:rgb(0%,0%,0%);stroke-opacity:1;stroke-miterlimit:10;" d="M -79.372844 -85.038906 C -79.372844 -81.91 -81.908 -79.370937 -85.040813 -79.370937 C -88.169719 -79.370937 -90.708781 -81.91 -90.708781 -85.038906 C -90.708781 -88.171719 -88.169719 -90.710781 -85.040813 -90.710781 C -81.908 -90.710781 -79.372844 -88.171719 -79.372844 -85.038906 Z M -79.372844 -85.038906 " transform="matrix(1,0,0,-1,92.908,36.215)"/>
<path style="fill:none;stroke-width:0.3985;stroke-linecap:butt;stroke-linejoin:miter;stroke:rgb(0%,0%,0%);stroke-opacity:1;stroke-miterlimit:10;" d="M 85.041219 -85.038906 C 85.041219 -69.386562 72.349812 -56.695156 56.693562 -56.695156 C 41.037312 -56.695156 28.345906 -69.386562 28.345906 -85.038906 C 28.345906 -100.695156 41.037312 -113.386562 56.693562 -113.386562 C 72.349812 -113.386562 85.041219 -100.695156 85.041219 -85.038906 Z M 85.041219 -85.038906 " transform="matrix(1,0,0,-1,92.908,36.215)"/>
<path style="fill-rule:nonzero;fill:rgb(0%,0%,0%);fill-opacity:1;stroke-width:0.3985;stroke-linecap:butt;stroke-linejoin:miter;stroke:rgb(0%,0%,0%);stroke-opacity:1;stroke-miterlimit:10;" d="M 62.361531 -56.695156 C 62.361531 -53.562344 59.826375 -51.023281 56.693562 -51.023281 C 53.56075 -51.023281 51.025594 -53.562344 51.025594 -56.695156 C 51.025594 -59.824062 53.56075 -62.363125 56.693562 -62.363125 C 59.826375 -62.363125 62.361531 -59.824062 62.361531 -56.695156 Z M 62.361531 -56.695156 " transform="matrix(1,0,0,-1,92.908,36.215)"/>
<path style=" stroke:none;fill-rule:nonzero;fill:rgb(100%,100%,100%);fill-opacity:1;" d="M 183.617188 121.253906 C 183.617188 118.125 181.078125 115.585938 177.949219 115.585938 C 174.816406 115.585938 172.277344 118.125 172.277344 121.253906 C 172.277344 124.386719 174.816406 126.925781 177.949219 126.925781 C 181.078125 126.925781 183.617188 124.386719 183.617188 121.253906 Z M 183.617188 121.253906 "/>
<g clip-path="url(#clip2)" clip-rule="nonzero">
<path style="fill:none;stroke-width:0.3985;stroke-linecap:butt;stroke-linejoin:miter;stroke:rgb(0%,0%,0%);stroke-opacity:1;stroke-miterlimit:10;" d="M 90.709187 -85.038906 C 90.709187 -81.91 88.170125 -79.370937 85.041219 -79.370937 C 81.908406 -79.370937 79.369344 -81.91 79.369344 -85.038906 C 79.369344 -88.171719 81.908406 -90.710781 85.041219 -90.710781 C 88.170125 -90.710781 90.709187 -88.171719 90.709187 -85.038906 Z M 90.709187 -85.038906 " transform="matrix(1,0,0,-1,92.908,36.215)"/>
</g>
<path style="fill-rule:nonzero;fill:rgb(100%,100%,100%);fill-opacity:1;stroke-width:0.3985;stroke-linecap:butt;stroke-linejoin:miter;stroke:rgb(0%,0%,0%);stroke-opacity:1;stroke-miterlimit:10;" d="M 62.361531 -113.386562 C 62.361531 -110.257656 59.826375 -107.718594 56.693562 -107.718594 C 53.56075 -107.718594 51.025594 -110.257656 51.025594 -113.386562 C 51.025594 -116.519375 53.56075 -119.058437 56.693562 -119.058437 C 59.826375 -119.058437 62.361531 -116.519375 62.361531 -113.386562 Z M 62.361531 -113.386562 " transform="matrix(1,0,0,-1,92.908,36.215)"/>
<path style="fill-rule:nonzero;fill:rgb(100%,100%,100%);fill-opacity:1;stroke-width:0.3985;stroke-linecap:butt;stroke-linejoin:miter;stroke:rgb(0%,0%,0%);stroke-opacity:1;stroke-miterlimit:10;" d="M 34.017781 -85.038906 C 34.017781 -81.91 31.478719 -79.370937 28.345906 -79.370937 C 25.217 -79.370937 22.677937 -81.91 22.677937 -85.038906 C 22.677937 -88.171719 25.217 -90.710781 28.345906 -90.710781 C 31.478719 -90.710781 34.017781 -88.171719 34.017781 -85.038906 Z M 34.017781 -85.038906 " transform="matrix(1,0,0,-1,92.908,36.215)"/>
<path style="fill:none;stroke-width:0.3985;stroke-linecap:butt;stroke-linejoin:miter;stroke:rgb(0%,0%,0%);stroke-opacity:1;stroke-miterlimit:10;" d="M -28.3455 -170.081875 C -28.3455 -154.425625 -41.036906 -141.734219 -56.693156 -141.734219 C -72.349406 -141.734219 -85.040813 -154.425625 -85.040813 -170.081875 C -85.040813 -185.738125 -72.349406 -198.429531 -56.693156 -198.429531 C -41.036906 -198.429531 -28.3455 -185.738125 -28.3455 -170.081875 Z M -28.3455 -170.081875 " transform="matrix(1,0,0,-1,92.908,36.215)"/>
<path style="fill-rule:nonzero;fill:rgb(0%,0%,0%);fill-opacity:1;stroke-width:0.3985;stroke-linecap:butt;stroke-linejoin:miter;stroke:rgb(0%,0%,0%);stroke-opacity:1;stroke-miterlimit:10;" d="M -51.025188 -141.734219 C -51.025188 -138.601406 -53.56425 -136.06625 -56.693156 -136.06625 C -59.825969 -136.06625 -62.361125 -138.601406 -62.361125 -141.734219 C -62.361125 -144.867031 -59.825969 -147.402187 -56.693156 -147.402187 C -53.56425 -147.402187 -51.025188 -144.867031 -51.025188 -141.734219 Z M -51.025188 -141.734219 " transform="matrix(1,0,0,-1,92.908,36.215)"/>
<path style="fill-rule:nonzero;fill:rgb(100%,100%,100%);fill-opacity:1;stroke-width:0.3985;stroke-linecap:butt;stroke-linejoin:miter;stroke:rgb(0%,0%,0%);stroke-opacity:1;stroke-miterlimit:10;" d="M -22.677531 -170.081875 C -22.677531 -166.949062 -25.216594 -164.41 -28.3455 -164.41 C -31.478313 -164.41 -34.017375 -166.949062 -34.017375 -170.081875 C -34.017375 -173.210781 -31.478313 -175.749844 -28.3455 -175.749844 C -25.216594 -175.749844 -22.677531 -173.210781 -22.677531 -170.081875 Z M -22.677531 -170.081875 " transform="matrix(1,0,0,-1,92.908,36.215)"/>
<path style="fill-rule:nonzero;fill:rgb(0%,0%,0%);fill-opacity:1;stroke-width:0.3985;stroke-linecap:butt;stroke-linejoin:miter;stroke:rgb(0%,0%,0%);stroke-opacity:1;stroke-miterlimit:10;" d="M -51.025188 -198.429531 C -51.025188 -195.296719 -53.56425 -192.757656 -56.693156 -192.757656 C -59.825969 -192.757656 -62.361125 -195.296719 -62.361125 -198.429531 C -62.361125 -201.558437 -59.825969 -204.0975 -56.693156 -204.0975 C -53.56425 -204.0975 -51.025188 -201.558437 -51.025188 -198.429531 Z M -51.025188 -198.429531 " transform="matrix(1,0,0,-1,92.908,36.215)"/>
<path style="fill-rule:nonzero;fill:rgb(0%,0%,0%);fill-opacity:1;stroke-width:0.3985;stroke-linecap:butt;stroke-linejoin:miter;stroke:rgb(0%,0%,0%);stroke-opacity:1;stroke-miterlimit:10;" d="M -79.372844 -170.081875 C -79.372844 -166.949062 -81.908 -164.41 -85.040813 -164.41 C -88.169719 -164.41 -90.708781 -166.949062 -90.708781 -170.081875 C -90.708781 -173.210781 -88.169719 -175.749844 -85.040813 -175.749844 C -81.908 -175.749844 -79.372844 -173.210781 -79.372844 -170.081875 Z M -79.372844 -170.081875 " transform="matrix(1,0,0,-1,92.908,36.215)"/>
<path style="fill:none;stroke-width:0.3985;stroke-linecap:butt;stroke-linejoin:miter;stroke:rgb(0%,0%,0%);stroke-opacity:1;stroke-miterlimit:10;" d="M 85.041219 -170.081875 C 85.041219 -154.425625 72.349812 -141.734219 56.693562 -141.734219 C 41.037312 -141.734219 28.345906 -154.425625 28.345906 -170.081875 C 28.345906 -185.738125 41.037312 -198.429531 56.693562 -198.429531 C 72.349812 -198.429531 85.041219 -185.738125 85.041219 -170.081875 Z M 85.041219 -170.081875 " transform="matrix(1,0,0,-1,92.908,36.215)"/>
<path style="fill-rule:nonzero;fill:rgb(100%,100%,100%);fill-opacity:1;stroke-width:0.3985;stroke-linecap:butt;stroke-linejoin:miter;stroke:rgb(0%,0%,0%);stroke-opacity:1;stroke-miterlimit:10;" d="M 62.361531 -141.734219 C 62.361531 -138.601406 59.826375 -136.06625 56.693562 -136.06625 C 53.56075 -136.06625 51.025594 -138.601406 51.025594 -141.734219 C 51.025594 -144.867031 53.56075 -147.402187 56.693562 -147.402187 C 59.826375 -147.402187 62.361531 -144.867031 62.361531 -141.734219 Z M 62.361531 -141.734219 " transform="matrix(1,0,0,-1,92.908,36.215)"/>
<path style=" stroke:none;fill-rule:nonzero;fill:rgb(0%,0%,0%);fill-opacity:1;" d="M 183.617188 206.296875 C 183.617188 203.164062 181.078125 200.625 177.949219 200.625 C 174.816406 200.625 172.277344 203.164062 172.277344 206.296875 C 172.277344 209.425781 174.816406 211.964844 177.949219 211.964844 C 181.078125 211.964844 183.617188 209.425781 183.617188 206.296875 Z M 183.617188 206.296875 "/>
<g clip-path="url(#clip3)" clip-rule="nonzero">
<path style="fill:none;stroke-width:0.3985;stroke-linecap:butt;stroke-linejoin:miter;stroke:rgb(0%,0%,0%);stroke-opacity:1;stroke-miterlimit:10;" d="M 90.709187 -170.081875 C 90.709187 -166.949062 88.170125 -164.41 85.041219 -164.41 C 81.908406 -164.41 79.369344 -166.949062 79.369344 -170.081875 C 79.369344 -173.210781 81.908406 -175.749844 85.041219 -175.749844 C 88.170125 -175.749844 90.709187 -173.210781 90.709187 -170.081875 Z M 90.709187 -170.081875 " transform="matrix(1,0,0,-1,92.908,36.215)"/>
</g>
<path style="fill-rule:nonzero;fill:rgb(100%,100%,100%);fill-opacity:1;stroke-width:0.3985;stroke-linecap:butt;stroke-linejoin:miter;stroke:rgb(0%,0%,0%);stroke-opacity:1;stroke-miterlimit:10;" d="M 62.361531 -198.429531 C 62.361531 -195.296719 59.826375 -192.757656 56.693562 -192.757656 C 53.56075 -192.757656 51.025594 -195.296719 51.025594 -198.429531 C 51.025594 -201.558437 53.56075 -204.0975 56.693562 -204.0975 C 59.826375 -204.0975 62.361531 -201.558437 62.361531 -198.429531 Z M 62.361531 -198.429531 " transform="matrix(1,0,0,-1,92.908,36.215)"/>
<path style="fill-rule:nonzero;fill:rgb(100%,100%,100%);fill-opacity:1;stroke-width:0.3985;stroke-linecap:butt;stroke-linejoin:miter;stroke:rgb(0%,0%,0%);stroke-opacity:1;stroke-miterlimit:10;" d="M 34.017781 -170.081875 C 34.017781 -166.949062 31.478719 -164.41 28.345906 -164.41 C 25.217 -164.41 22.677937 -166.949062 22.677937 -170.081875 C 22.677937 -173.210781 25.217 -175.749844 28.345906 -175.749844 C 31.478719 -175.749844 34.017781 -173.210781 34.017781 -170.081875 Z M 34.017781 -170.081875 " transform="matrix(1,0,0,-1,92.908,36.215)"/>
<path style="fill:none;stroke-width:0.3985;stroke-linecap:butt;stroke-linejoin:miter;stroke:rgb(0%,0%,0%);stroke-opacity:1;stroke-miterlimit:10;" d="M -28.3455 -255.120937 C -28.3455 -239.464687 -41.036906 -226.773281 -56.693156 -226.773281 C -72.349406 -226.773281 -85.040813 -239.464687 -85.040813 -255.120937 C -85.040813 -270.777187 -72.349406 -283.468594 -56.693156 -283.468594 C -41.036906 -283.468594 -28.3455 -270.777187 -28.3455 -255.120937 Z M -28.3455 -255.120937 " transform="matrix(1,0,0,-1,92.908,36.215)"/>
<path style="fill-rule:nonzero;fill:rgb(0%,0%,0%);fill-opacity:1;stroke-width:0.3985;stroke-linecap:butt;stroke-linejoin:miter;stroke:rgb(0%,0%,0%);stroke-opacity:1;stroke-miterlimit:10;" d="M -51.025188 -226.773281 C -51.025188 -223.644375 -53.56425 -221.105312 -56.693156 -221.105312 C -59.825969 -221.105312 -62.361125 -223.644375 -62.361125 -226.773281 C -62.361125 -229.906094 -59.825969 -232.445156 -56.693156 -232.445156 C -53.56425 -232.445156 -51.025188 -229.906094 -51.025188 -226.773281 Z M -51.025188 -226.773281 " transform="matrix(1,0,0,-1,92.908,36.215)"/>
<path style="fill-rule:nonzero;fill:rgb(100%,100%,100%);fill-opacity:1;stroke-width:0.3985;stroke-linecap:butt;stroke-linejoin:miter;stroke:rgb(0%,0%,0%);stroke-opacity:1;stroke-miterlimit:10;" d="M -22.677531 -255.120937 C -22.677531 -251.992031 -25.216594 -249.452969 -28.3455 -249.452969 C -31.478313 -249.452969 -34.017375 -251.992031 -34.017375 -255.120937 C -34.017375 -258.25375 -31.478313 -260.788906 -28.3455 -260.788906 C -25.216594 -260.788906 -22.677531 -258.25375 -22.677531 -255.120937 Z M -22.677531 -255.120937 " transform="matrix(1,0,0,-1,92.908,36.215)"/>
<path style=" stroke:none;fill-rule:nonzero;fill:rgb(0%,0%,0%);fill-opacity:1;" d="M 41.882812 319.683594 C 41.882812 316.550781 39.34375 314.015625 36.214844 314.015625 C 33.082031 314.015625 30.546875 316.550781 30.546875 319.683594 C 30.546875 322.8125 33.082031 325.351562 36.214844 325.351562 C 39.34375 325.351562 41.882812 322.8125 41.882812 319.683594 Z M 41.882812 319.683594 "/>
<g clip-path="url(#clip4)" clip-rule="nonzero">
<path style="fill:none;stroke-width:0.3985;stroke-linecap:butt;stroke-linejoin:miter;stroke:rgb(0%,0%,0%);stroke-opacity:1;stroke-miterlimit:10;" d="M -51.025188 -283.468594 C -51.025188 -280.335781 -53.56425 -277.800625 -56.693156 -277.800625 C -59.825969 -277.800625 -62.361125 -280.335781 -62.361125 -283.468594 C -62.361125 -286.5975 -59.825969 -289.136562 -56.693156 -289.136562 C -53.56425 -289.136562 -51.025188 -286.5975 -51.025188 -283.468594 Z M -51.025188 -283.468594 " transform="matrix(1,0,0,-1,92.908,36.215)"/>
</g>
<path style="fill-rule:nonzero;fill:rgb(100%,100%,100%);fill-opacity:1;stroke-width:0.3985;stroke-linecap:butt;stroke-linejoin:miter;stroke:rgb(0%,0%,0%);stroke-opacity:1;stroke-miterlimit:10;" d="M -79.372844 -255.120937 C -79.372844 -251.992031 -81.908 -249.452969 -85.040813 -249.452969 C -88.169719 -249.452969 -90.708781 -251.992031 -90.708781 -255.120937 C -90.708781 -258.25375 -88.169719 -260.788906 -85.040813 -260.788906 C -81.908 -260.788906 -79.372844 -258.25375 -79.372844 -255.120937 Z M -79.372844 -255.120937 " transform="matrix(1,0,0,-1,92.908,36.215)"/>
<path style="fill:none;stroke-width:0.3985;stroke-linecap:butt;stroke-linejoin:miter;stroke:rgb(0%,0%,0%);stroke-opacity:1;stroke-miterlimit:10;" d="M 85.041219 -255.120937 C 85.041219 -239.464687 72.349812 -226.773281 56.693562 -226.773281 C 41.037312 -226.773281 28.345906 -239.464687 28.345906 -255.120937 C 28.345906 -270.777187 41.037312 -283.468594 56.693562 -283.468594 C 72.349812 -283.468594 85.041219 -270.777187 85.041219 -255.120937 Z M 85.041219 -255.120937 " transform="matrix(1,0,0,-1,92.908,36.215)"/>
<path style="fill-rule:nonzero;fill:rgb(100%,100%,100%);fill-opacity:1;stroke-width:0.3985;stroke-linecap:butt;stroke-linejoin:miter;stroke:rgb(0%,0%,0%);stroke-opacity:1;stroke-miterlimit:10;" d="M 62.361531 -226.773281 C 62.361531 -223.644375 59.826375 -221.105312 56.693562 -221.105312 C 53.56075 -221.105312 51.025594 -223.644375 51.025594 -226.773281 C 51.025594 -229.906094 53.56075 -232.445156 56.693562 -232.445156 C 59.826375 -232.445156 62.361531 -229.906094 62.361531 -226.773281 Z M 62.361531 -226.773281 " transform="matrix(1,0,0,-1,92.908,36.215)"/>
<path style=" stroke:none;fill-rule:nonzero;fill:rgb(0%,0%,0%);fill-opacity:1;" d="M 183.617188 291.335938 C 183.617188 288.207031 181.078125 285.667969 177.949219 285.667969 C 174.816406 285.667969 172.277344 288.207031 172.277344 291.335938 C 172.277344 294.46875 174.816406 297.003906 177.949219 297.003906 C 181.078125 297.003906 183.617188 294.46875 183.617188 291.335938 Z M 183.617188 291.335938 "/>
<g clip-path="url(#clip5)" clip-rule="nonzero">
<path style="fill:none;stroke-width:0.3985;stroke-linecap:butt;stroke-linejoin:miter;stroke:rgb(0%,0%,0%);stroke-opacity:1;stroke-miterlimit:10;" d="M 90.709187 -255.120937 C 90.709187 -251.992031 88.170125 -249.452969 85.041219 -249.452969 C 81.908406 -249.452969 79.369344 -251.992031 79.369344 -255.120937 C 79.369344 -258.25375 81.908406 -260.788906 85.041219 -260.788906 C 88.170125 -260.788906 90.709187 -258.25375 90.709187 -255.120937 Z M 90.709187 -255.120937 " transform="matrix(1,0,0,-1,92.908,36.215)"/>
</g>
<path style=" stroke:none;fill-rule:nonzero;fill:rgb(100%,100%,100%);fill-opacity:1;" d="M 155.269531 319.683594 C 155.269531 316.550781 152.734375 314.015625 149.601562 314.015625 C 146.46875 314.015625 143.933594 316.550781 143.933594 319.683594 C 143.933594 322.8125 146.46875 325.351562 149.601562 325.351562 C 152.734375 325.351562 155.269531 322.8125 155.269531 319.683594 Z M 155.269531 319.683594 "/>
<g clip-path="url(#clip6)" clip-rule="nonzero">
<path style="fill:none;stroke-width:0.3985;stroke-linecap:butt;stroke-linejoin:miter;stroke:rgb(0%,0%,0%);stroke-opacity:1;stroke-miterlimit:10;" d="M 62.361531 -283.468594 C 62.361531 -280.335781 59.826375 -277.800625 56.693562 -277.800625 C 53.56075 -277.800625 51.025594 -280.335781 51.025594 -283.468594 C 51.025594 -286.5975 53.56075 -289.136562 56.693562 -289.136562 C 59.826375 -289.136562 62.361531 -286.5975 62.361531 -283.468594 Z M 62.361531 -283.468594 " transform="matrix(1,0,0,-1,92.908,36.215)"/>
</g>
<path style="fill-rule:nonzero;fill:rgb(0%,0%,0%);fill-opacity:1;stroke-width:0.3985;stroke-linecap:butt;stroke-linejoin:miter;stroke:rgb(0%,0%,0%);stroke-opacity:1;stroke-miterlimit:10;" d="M 34.017781 -255.120937 C 34.017781 -251.992031 31.478719 -249.452969 28.345906 -249.452969 C 25.217 -249.452969 22.677937 -251.992031 22.677937 -255.120937 C 22.677937 -258.25375 25.217 -260.788906 28.345906 -260.788906 C 31.478719 -260.788906 34.017781 -258.25375 34.017781 -255.120937 Z M 34.017781 -255.120937 " transform="matrix(1,0,0,-1,92.908,36.215)"/>
</g>
</svg>
