<?xml version="1.0" encoding="UTF-8"?>
<svg xmlns="http://www.w3.org/2000/svg" xmlns:xlink="http://www.w3.org/1999/xlink" width="242.508pt" height="327.548pt" viewBox="0 0 242.508 327.548" version="1.1">
<defs>
<clipPath id="clip1">
  <path d="M 223 24 L 242.507812 24 L 242.507812 48 L 223 48 Z M 223 24 "/>
</clipPath>
<clipPath id="clip2">
  <path d="M 223 109 L 242.507812 109 L 242.507812 133 L 223 133 Z M 223 109 "/>
</clipPath>
<clipPath id="clip3">
  <path d="M 223 194 L 242.507812 194 L 242.507812 218 L 223 218 Z M 223 194 "/>
</clipPath>
<clipPath id="clip4">
  <path d="M 24 308 L 48 308 L 48 327.546875 L 24 327.546875 Z M 24 308 "/>
</clipPath>
<clipPath id="clip5">
  <path d="M 109 308 L 133 308 L 133 327.546875 L 109 327.546875 Z M 109 308 "/>
</clipPath>
<clipPath id="clip6">
  <path d="M 223 280 L 242.507812 280 L 242.507812 303 L 223 303 Z M 223 280 "/>
</clipPath>
<clipPath id="clip7">
  <path d="M 194 308 L 218 308 L 218 327.546875 L 194 327.546875 Z M 194 308 "/>
</clipPath>
</defs>
<g id="surface1">
<path style="fill:none;stroke-width:0.3985;stroke-linecap:butt;stroke-linejoin:miter;stroke:rgb(0%,0%,0%);stroke-opacity:1;stroke-miterlimit:10;" d="M -56.695406 0.00015625 C -56.695406 15.656406 -69.382906 28.347813 -85.039156 28.347813 C -100.695406 28.347813 -113.386813 15.656406 -113.386813 0.00015625 C -113.386813 -15.656094 -100.695406 -28.3475 -85.039156 -28.3475 C -69.382906 -28.3475 -56.695406 -15.656094 -56.695406 0.00015625 Z M -56.695406 0.00015625 " transform="matrix(1,0,0,-1,121.254,36.215)"/>
<path style="fill-rule:nonzero;fill:rgb(0%,0%,0%);fill-opacity:1;stroke-width:0.3985;stroke-linecap:butt;stroke-linejoin:miter;stroke:rgb(0%,0%,0%);stroke-opacity:1;stroke-miterlimit:10;" d="M -79.371188 28.347813 C -79.371188 31.476719 -81.91025 34.015781 -85.039156 34.015781 C -88.171969 34.015781 -90.711031 31.476719 -90.711031 28.347813 C -90.711031 25.215 -88.171969 22.675938 -85.039156 22.675938 C -81.91025 22.675938 -79.371188 25.215 -79.371188 28.347813 Z M -79.371188 28.347813 " transform="matrix(1,0,0,-1,121.254,36.215)"/>
<path style="fill-rule:nonzero;fill:rgb(0%,0%,0%);fill-opacity:1;stroke-width:0.3985;stroke-linecap:butt;stroke-linejoin:miter;stroke:rgb(0%,0%,0%);stroke-opacity:1;stroke-miterlimit:10;" d="M -51.023531 0.00015625 C -51.023531 3.132969 -53.562594 5.668125 -56.695406 5.668125 C -59.824313 5.668125 -62.363375 3.132969 -62.363375 0.00015625 C -62.363375 -3.132656 -59.824313 -5.667812 -56.695406 -5.667812 C -53.562594 -5.667812 -51.023531 -3.132656 -51.023531 0.00015625 Z M -51.023531 0.00015625 " transform="matrix(1,0,0,-1,121.254,36.215)"/>
<path style="fill-rule:nonzero;fill:rgb(0%,0%,0%);fill-opacity:1;stroke-width:0.3985;stroke-linecap:butt;stroke-linejoin:miter;stroke:rgb(0%,0%,0%);stroke-opacity:1;stroke-miterlimit:10;" d="M -79.371188 -28.3475 C -79.371188 -25.214687 -81.91025 -22.675625 -85.039156 -22.675625 C -88.171969 -22.675625 -90.711031 -25.214687 -90.711031 -28.3475 C -90.711031 -31.476406 -88.171969 -34.015469 -85.039156 -34.015469 C -81.91025 -34.015469 -79.371188 -31.476406 -79.371188 -28.3475 Z M -79.371188 -28.3475 " transform="matrix(1,0,0,-1,121.254,36.215)"/>
<path style="fill-rule:nonzero;fill:rgb(0%,0%,0%);fill-opacity:1;stroke-width:0.3985;stroke-linecap:butt;stroke-linejoin:miter;stroke:rgb(0%,0%,0%);stroke-opacity:1;stroke-miterlimit:10;" d="M -107.718844 0.00015625 C -107.718844 3.132969 -110.257906 5.668125 -113.386813 5.668125 C -116.519625 5.668125 -119.054781 3.132969 -119.054781 0.00015625 C -119.054781 -3.132656 -116.519625 -5.667812 -113.386813 -5.667812 C -110.257906 -5.667812 -107.718844 -3.132656 -107.718844 0.00015625 Z M -107.718844 0.00015625 " transform="matrix(1,0,0,-1,121.254,36.215)"/>
<path style="fill:none;stroke-width:0.3985;stroke-linecap:butt;stroke-linejoin:miter;stroke:rgb(0%,0%,0%);stroke-opacity:1;stroke-miterlimit:10;" d="M 28.347562 0.00015625 C 28.347562 15.656406 15.656156 28.347813 -0.00009375 28.347813 C -15.656344 28.347813 -28.34775 15.656406 -28.34775 0.00015625 C -28.34775 -15.656094 -15.656344 -28.3475 -0.00009375 -28.3475 C 15.656156 -28.3475 28.347562 -15.656094 28.347562 0.00015625 Z M 28.347562 0.00015625 " transform="matrix(1,0,0,-1,121.254,36.215)"/>
<path style="fill-rule:nonzero;fill:rgb(100%,100%,100%);fill-opacity:1;stroke-width:0.3985;stroke-linecap:butt;stroke-linejoin:miter;stroke:rgb(0%,0%,0%);stroke-opacity:1;stroke-miterlimit:10;" d="M 5.667875 28.347813 C 5.667875 31.476719 3.132719 34.015781 -0.00009375 34.015781 C -3.132906 34.015781 -5.668063 31.476719 -5.668063 28.347813 C -5.668063 25.215 -3.132906 22.675938 -0.00009375 22.675938 C 3.132719 22.675938 5.667875 25.215 5.667875 28.347813 Z M 5.667875 28.347813 " transform="matrix(1,0,0,-1,121.254,36.215)"/>
<path style="fill-rule:nonzero;fill:rgb(100%,100%,100%);fill-opacity:1;stroke-width:0.3985;stroke-linecap:butt;stroke-linejoin:miter;stroke:rgb(0%,0%,0%);stroke-opacity:1;stroke-miterlimit:10;" d="M 34.015531 0.00015625 C 34.015531 3.132969 31.476469 5.668125 28.347562 5.668125 C 25.21475 5.668125 22.675687 3.132969 22.675687 0.00015625 C 22.675687 -3.132656 25.21475 -5.667812 28.347562 -5.667812 C 31.476469 -5.667812 34.015531 -3.132656 34.015531 0.00015625 Z M 34.015531 0.00015625 " transform="matrix(1,0,0,-1,121.254,36.215)"/>
<path style="fill-rule:nonzero;fill:rgb(100%,100%,100%);fill-opacity:1;stroke-width:0.3985;stroke-linecap:butt;stroke-linejoin:miter;stroke:rgb(0%,0%,0%);stroke-opacity:1;stroke-miterlimit:10;" d="M 5.667875 -28.3475 C 5.667875 -25.214687 3.132719 -22.675625 -0.00009375 -22.675625 C -3.132906 -22.675625 -5.668063 -25.214687 -5.668063 -28.3475 C -5.668063 -31.476406 -3.132906 -34.015469 -0.00009375 -34.015469 C 3.132719 -34.015469 5.667875 -31.476406 5.667875 -28.3475 Z M 5.667875 -28.3475 " transform="matrix(1,0,0,-1,121.254,36.215)"/>
<path style="fill-rule:nonzero;fill:rgb(100%,100%,100%);fill-opacity:1;stroke-width:0.3985;stroke-linecap:butt;stroke-linejoin:miter;stroke:rgb(0%,0%,0%);stroke-opacity:1;stroke-miterlimit:10;" d="M -22.675875 0.00015625 C -22.675875 3.132969 -25.214938 5.668125 -28.34775 5.668125 C -31.476656 5.668125 -34.015719 3.132969 -34.015719 0.00015625 C -34.015719 -3.132656 -31.476656 -5.667812 -28.34775 -5.667812 C -25.214938 -5.667812 -22.675875 -3.132656 -22.675875 0.00015625 Z M -22.675875 0.00015625 " transform="matrix(1,0,0,-1,121.254,36.215)"/>
<path style="fill:none;stroke-width:0.3985;stroke-linecap:butt;stroke-linejoin:miter;stroke:rgb(0%,0%,0%);stroke-opacity:1;stroke-miterlimit:10;" d="M -56.695406 -85.038906 C -56.695406 -69.386562 -69.382906 -56.695156 -85.039156 -56.695156 C -100.695406 -56.695156 -113.386813 -69.386562 -113.386813 -85.038906 C -113.386813 -100.695156 -100.695406 -113.386562 -85.039156 -113.386562 C -69.382906 -113.386562 -56.695406 -100.695156 -56.695406 -85.038906 Z M -56.695406 -85.038906 " transform="matrix(1,0,0,-1,121.254,36.215)"/>
<path style="fill-rule:nonzero;fill:rgb(0%,0%,0%);fill-opacity:1;stroke-width:0.3985;stroke-linecap:butt;stroke-linejoin:miter;stroke:rgb(0%,0%,0%);stroke-opacity:1;stroke-miterlimit:10;" d="M -79.371188 -56.695156 C -79.371188 -53.562344 -81.91025 -51.023281 -85.039156 -51.023281 C -88.171969 -51.023281 -90.711031 -53.562344 -90.711031 -56.695156 C -90.711031 -59.824062 -88.171969 -62.363125 -85.039156 -62.363125 C -81.91025 -62.363125 -79.371188 -59.824062 -79.371188 -56.695156 Z M -79.371188 -56.695156 " transform="matrix(1,0,0,-1,121.254,36.215)"/>
<path style="fill-rule:nonzero;fill:rgb(100%,100%,100%);fill-opacity:1;stroke-width:0.3985;stroke-linecap:butt;stroke-linejoin:miter;stroke:rgb(0%,0%,0%);stroke-opacity:1;stroke-miterlimit:10;" d="M -51.023531 -85.038906 C -51.023531 -81.91 -53.562594 -79.370937 -56.695406 -79.370937 C -59.824313 -79.370937 -62.363375 -81.91 -62.363375 -85.038906 C -62.363375 -88.171719 -59.824313 -90.710781 -56.695406 -90.710781 C -53.562594 -90.710781 -51.023531 -88.171719 -51.023531 -85.038906 Z M -51.023531 -85.038906 " transform="matrix(1,0,0,-1,121.254,36.215)"/>
<path style="fill-rule:nonzero;fill:rgb(0%,0%,0%);fill-opacity:1;stroke-width:0.3985;stroke-linecap:butt;stroke-linejoin:miter;stroke:rgb(0%,0%,0%);stroke-opacity:1;stroke-miterlimit:10;" d="M -79.371188 -113.386562 C -79.371188 -110.257656 -81.91025 -107.718594 -85.039156 -107.718594 C -88.171969 -107.718594 -90.711031 -110.257656 -90.711031 -113.386562 C -90.711031 -116.519375 -88.171969 -119.058437 -85.039156 -119.058437 C -81.91025 -119.058437 -79.371188 -116.519375 -79.371188 -113.386562 Z M -79.371188 -113.386562 " transform="matrix(1,0,0,-1,121.254,36.215)"/>
<path style="fill-rule:nonzero;fill:rgb(100%,100%,100%);fill-opacity:1;stroke-width:0.3985;stroke-linecap:butt;stroke-linejoin:miter;stroke:rgb(0%,0%,0%);stroke-opacity:1;stroke-miterlimit:10;" d="M -107.718844 -85.038906 C -107.718844 -81.91 -110.257906 -79.370937 -113.386813 -79.370937 C -116.519625 -79.370937 -119.054781 -81.91 -119.054781 -85.038906 C -119.054781 -88.171719 -116.519625 -90.710781 -113.386813 -90.710781 C -110.257906 -90.710781 -107.718844 -88.171719 -107.718844 -85.038906 Z M -107.718844 -85.038906 " transform="matrix(1,0,0,-1,121.254,36.215)"/>
<path style="fill:none;stroke-width:0.3985;stroke-linecap:butt;stroke-linejoin:miter;stroke:rgb(0%,0%,0%);stroke-opacity:1;stroke-miterlimit:10;" d="M 28.347562 -85.038906 C 28.347562 -69.386562 15.656156 -56.695156 -0.00009375 -56.695156 C -15.656344 -56.695156 -28.34775 -69.386562 -28.34775 -85.038906 C -28.34775 -100.695156 -15.656344 -113.386562 -0.00009375 -113.386562 C 15.656156 -113.386562 28.347562 -100.695156 28.347562 -85.038906 Z M 28.347562 -85.038906 " transform="matrix(1,0,0,-1,121.254,36.215)"/>
<path style="fill-rule:nonzero;fill:rgb(100%,100%,100%);fill-opacity:1;stroke-width:0.3985;stroke-linecap:butt;stroke-linejoin:miter;stroke:rgb(0%,0%,0%);stroke-opacity:1;stroke-miterlimit:10;" d="M 5.667875 -56.695156 C 5.667875 -53.562344 3.132719 -51.023281 -0.00009375 -51.023281 C -3.132906 -51.023281 -5.668063 -53.562344 -5.668063 -56.695156 C -5.668063 -59.824062 -3.132906 -62.363125 -0.00009375 -62.363125 C 3.132719 -62.363125 5.667875 -59.824062 5.667875 -56.695156 Z M 5.667875 -56.695156 " transform="matrix(1,0,0,-1,121.254,36.215)"/>
<path style="fill-rule:nonzero;fill:rgb(0%,0%,0%);fill-opacity:1;stroke-width:0.3985;stroke-linecap:butt;stroke-linejoin:miter;stroke:rgb(0%,0%,0%);stroke-opacity:1;stroke-miterlimit:10;" d="M 34.015531 -85.038906 C 34.015531 -81.91 31.476469 -79.370937 28.347562 -79.370937 C 25.21475 -79.370937 22.675687 -81.91 22.675687 -85.038906 C 22.675687 -88.171719 25.21475 -90.710781 28.347562 -90.710781 C 31.476469 -90.710781 34.015531 -88.171719 34.015531 -85.038906 Z M 34.015531 -85.038906 " transform="matrix(1,0,0,-1,121.254,36.215)"/>
<path style="fill-rule:nonzero;fill:rgb(100%,100%,100%);fill-opacity:1;stroke-width:0.3985;stroke-linecap:butt;stroke-linejoin:miter;stroke:rgb(0%,0%,0%);stroke-opacity:1;stroke-miterlimit:10;" d="M 5.667875 -113.386562 C 5.667875 -110.257656 3.132719 -107.718594 -0.00009375 -107.718594 C -3.132906 -107.718594 -5.668063 -110.257656 -5.668063 -113.386562 C -5.668063 -116.519375 -3.132906 -119.058437 -0.00009375 -119.058437 C 3.132719 -119.058437 5.667875 -116.519375 5.667875 -113.386562 Z M 5.667875 -113.386562 " transform="matrix(1,0,0,-1,121.254,36.215)"/>
<path style="fill-rule:nonzero;fill:rgb(0%,0%,0%);fill-opacity:1;stroke-width:0.3985;stroke-linecap:butt;stroke-linejoin:miter;stroke:rgb(0%,0%,0%);stroke-opacity:1;stroke-miterlimit:10;" d="M -22.675875 -85.038906 C -22.675875 -81.91 -25.214938 -79.370937 -28.34775 -79.370937 C -31.476656 -79.370937 -34.015719 -81.91 -34.015719 -85.038906 C -34.015719 -88.171719 -31.476656 -90.710781 -28.34775 -90.710781 C -25.214938 -90.710781 -22.675875 -88.171719 -22.675875 -85.038906 Z M -22.675875 -85.038906 " transform="matrix(1,0,0,-1,121.254,36.215)"/>
<path style="fill:none;stroke-width:0.3985;stroke-linecap:butt;stroke-linejoin:miter;stroke:rgb(0%,0%,0%);stroke-opacity:1;stroke-miterlimit:10;" d="M 113.386625 0.00015625 C 113.386625 15.656406 100.695219 28.347813 85.038969 28.347813 C 69.386625 28.347813 56.695219 15.656406 56.695219 0.00015625 C 56.695219 -15.656094 69.386625 -28.3475 85.038969 -28.3475 C 100.695219 -28.3475 113.386625 -15.656094 113.386625 0.00015625 Z M 113.386625 0.00015625 " transform="matrix(1,0,0,-1,121.254,36.215)"/>
<path style="fill-rule:nonzero;fill:rgb(0%,0%,0%);fill-opacity:1;stroke-width:0.3985;stroke-linecap:butt;stroke-linejoin:miter;stroke:rgb(0%,0%,0%);stroke-opacity:1;stroke-miterlimit:10;" d="M 90.710844 28.347813 C 90.710844 31.476719 88.171781 34.015781 85.038969 34.015781 C 81.910062 34.015781 79.371 31.476719 79.371 28.347813 C 79.371 25.215 81.910062 22.675938 85.038969 22.675938 C 88.171781 22.675938 90.710844 25.215 90.710844 28.347813 Z M 90.710844 28.347813 " transform="matrix(1,0,0,-1,121.254,36.215)"/>
<path style=" stroke:none;fill-rule:nonzero;fill:rgb(0%,0%,0%);fill-opacity:1;" d="M 240.308594 36.214844 C 240.308594 33.082031 237.773438 30.546875 234.640625 30.546875 C 231.511719 30.546875 228.972656 33.082031 228.972656 36.214844 C 228.972656 39.347656 231.511719 41.882812 234.640625 41.882812 C 237.773438 41.882812 240.308594 39.347656 240.308594 36.214844 Z M 240.308594 36.214844 "/>
<g clip-path="url(#clip1)" clip-rule="nonzero">
<path style="fill:none;stroke-width:0.3985;stroke-linecap:butt;stroke-linejoin:miter;stroke:rgb(0%,0%,0%);stroke-opacity:1;stroke-miterlimit:10;" d="M 119.054594 0.00015625 C 119.054594 3.132969 116.519437 5.668125 113.386625 5.668125 C 110.257719 5.668125 107.718656 3.132969 107.718656 0.00015625 C 107.718656 -3.132656 110.257719 -5.667812 113.386625 -5.667812 C 116.519437 -5.667812 119.054594 -3.132656 119.054594 0.00015625 Z M 119.054594 0.00015625 " transform="matrix(1,0,0,-1,121.254,36.215)"/>
</g>
<path style="fill-rule:nonzero;fill:rgb(100%,100%,100%);fill-opacity:1;stroke-width:0.3985;stroke-linecap:butt;stroke-linejoin:miter;stroke:rgb(0%,0%,0%);stroke-opacity:1;stroke-miterlimit:10;" d="M 90.710844 -28.3475 C 90.710844 -25.214687 88.171781 -22.675625 85.038969 -22.675625 C 81.910062 -22.675625 79.371 -25.214687 79.371 -28.3475 C 79.371 -31.476406 81.910062 -34.015469 85.038969 -34.015469 C 88.171781 -34.015469 90.710844 -31.476406 90.710844 -28.3475 Z M 90.710844 -28.3475 " transform="matrix(1,0,0,-1,121.254,36.215)"/>
<path style="fill-rule:nonzero;fill:rgb(100%,100%,100%);fill-opacity:1;stroke-width:0.3985;stroke-linecap:butt;stroke-linejoin:miter;stroke:rgb(0%,0%,0%);stroke-opacity:1;stroke-miterlimit:10;" d="M 62.363187 0.00015625 C 62.363187 3.132969 59.824125 5.668125 56.695219 5.668125 C 53.562406 5.668125 51.023344 3.132969 51.023344 0.00015625 C 51.023344 -3.132656 53.562406 -5.667812 56.695219 -5.667812 C 59.824125 -5.667812 62.363187 -3.132656 62.363187 0.00015625 Z M 62.363187 0.00015625 " transform="matrix(1,0,0,-1,121.254,36.215)"/>
<path style="fill:none;stroke-width:0.3985;stroke-linecap:butt;stroke-linejoin:miter;stroke:rgb(0%,0%,0%);stroke-opacity:1;stroke-miterlimit:10;" d="M 113.386625 -85.038906 C 113.386625 -69.386562 100.695219 -56.695156 85.038969 -56.695156 C 69.386625 -56.695156 56.695219 -69.386562 56.695219 -85.038906 C 56.695219 -100.695156 69.386625 -113.386562 85.038969 -113.386562 C 100.695219 -113.386562 113.386625 -100.695156 113.386625 -85.038906 Z M 113.386625 -85.038906 " transform="matrix(1,0,0,-1,121.254,36.215)"/>
<path style="fill-rule:nonzero;fill:rgb(100%,100%,100%);fill-opacity:1;stroke-width:0.3985;stroke-linecap:butt;stroke-linejoin:miter;stroke:rgb(0%,0%,0%);stroke-opacity:1;stroke-miterlimit:10;" d="M 90.710844 -56.695156 C 90.710844 -53.562344 88.171781 -51.023281 85.038969 -51.023281 C 81.910062 -51.023281 79.371 -53.562344 79.371 -56.695156 C 79.371 -59.824062 81.910062 -62.363125 85.038969 -62.363125 C 88.171781 -62.363125 90.710844 -59.824062 90.710844 -56.695156 Z M 90.710844 -56.695156 " transform="matrix(1,0,0,-1,121.254,36.215)"/>
<path style=" stroke:none;fill-rule:nonzero;fill:rgb(100%,100%,100%);fill-opacity:1;" d="M 240.308594 121.253906 C 240.308594 118.125 237.773438 115.585938 234.640625 115.585938 C 231.511719 115.585938 228.972656 118.125 228.972656 121.253906 C 228.972656 124.386719 231.511719 126.925781 234.640625 126.925781 C 237.773438 126.925781 240.308594 124.386719 240.308594 121.253906 Z M 240.308594 121.253906 "/>
<g clip-path="url(#clip2)" clip-rule="nonzero">
<path style="fill:none;stroke-width:0.3985;stroke-linecap:butt;stroke-linejoin:miter;stroke:rgb(0%,0%,0%);stroke-opacity:1;stroke-miterlimit:10;" d="M 119.054594 -85.038906 C 119.054594 -81.91 116.519437 -79.370937 113.386625 -79.370937 C 110.257719 -79.370937 107.718656 -81.91 107.718656 -85.038906 C 107.718656 -88.171719 110.257719 -90.710781 113.386625 -90.710781 C 116.519437 -90.710781 119.054594 -88.171719 119.054594 -85.038906 Z M 119.054594 -85.038906 " transform="matrix(1,0,0,-1,121.254,36.215)"/>
</g>
<path style="fill-rule:nonzero;fill:rgb(0%,0%,0%);fill-opacity:1;stroke-width:0.3985;stroke-linecap:butt;stroke-linejoin:miter;stroke:rgb(0%,0%,0%);stroke-opacity:1;stroke-miterlimit:10;" d="M 90.710844 -113.386562 C 90.710844 -110.257656 88.171781 -107.718594 85.038969 -107.718594 C 81.910062 -107.718594 79.371 -110.257656 79.371 -113.386562 C 79.371 -116.519375 81.910062 -119.058437 85.038969 -119.058437 C 88.171781 -119.058437 90.710844 -116.519375 90.710844 -113.386562 Z M 90.710844 -113.386562 " transform="matrix(1,0,0,-1,121.254,36.215)"/>
<path style="fill-rule:nonzero;fill:rgb(0%,0%,0%);fill-opacity:1;stroke-width:0.3985;stroke-linecap:butt;stroke-linejoin:miter;stroke:rgb(0%,0%,0%);stroke-opacity:1;stroke-miterlimit:10;" d="M 62.363187 -85.038906 C 62.363187 -81.91 59.824125 -79.370937 56.695219 -79.370937 C 53.562406 -79.370937 51.023344 -81.91 51.023344 -85.038906 C 51.023344 -88.171719 53.562406 -90.710781 56.695219 -90.710781 C 59.824125 -90.710781 62.363187 -88.171719 62.363187 -85.038906 Z M 62.363187 -85.038906 " transform="matrix(1,0,0,-1,121.254,36.215)"/>
<path style="fill:none;stroke-width:0.3985;stroke-linecap:butt;stroke-linejoin:miter;stroke:rgb(0%,0%,0%);stroke-opacity:1;stroke-miterlimit:10;" d="M -56.695406 -170.081875 C -56.695406 -154.425625 -69.382906 -141.734219 -85.039156 -141.734219 C -100.695406 -141.734219 -113.386813 -154.425625 -113.386813 -170.081875 C -113.386813 -185.738125 -100.695406 -198.429531 -85.039156 -198.429531 C -69.382906 -198.429531 -56.695406 -185.738125 -56.695406 -170.081875 Z M -56.695406 -170.081875 " transform="matrix(1,0,0,-1,121.254,36.215)"/>
<path style="fill-rule:nonzero;fill:rgb(100%,100%,100%);fill-opacity:1;stroke-width:0.3985;stroke-linecap:butt;stroke-linejoin:miter;stroke:rgb(0%,0%,0%);stroke-opacity:1;stroke-miterlimit:10;" d="M -79.371188 -141.734219 C -79.371188 -138.601406 -81.91025 -136.06625 -85.039156 -136.06625 C -88.171969 -136.06625 -90.711031 -138.601406 -90.711031 -141.734219 C -90.711031 -144.867031 -88.171969 -147.402187 -85.039156 -147.402187 C -81.91025 -147.402187 -79.371188 -144.867031 -79.371188 -141.734219 Z M -79.371188 -141.734219 " transform="matrix(1,0,0,-1,121.254,36.215)"/>
<path style="fill-rule:nonzero;fill:rgb(0%,0%,0%);fill-opacity:1;stroke-width:0.3985;stroke-linecap:butt;stroke-linejoin:miter;stroke:rgb(0%,0%,0%);stroke-opacity:1;stroke-miterlimit:10;" d="M -51.023531 -170.081875 C -51.023531 -166.949062 -53.562594 -164.41 -56.695406 -164.41 C -59.824313 -164.41 -62.363375 -166.949062 -62.363375 -170.081875 C -62.363375 -173.210781 -59.824313 -175.749844 -56.695406 -175.749844 C -53.562594 -175.749844 -51.023531 -173.210781 -51.023531 -170.081875 Z M -51.023531 -170.081875 " transform="matrix(1,0,0,-1,121.254,36.215)"/>
<path style="fill-rule:nonzero;fill:rgb(0%,0%,0%);fill-opacity:1;stroke-width:0.3985;stroke-linecap:butt;stroke-linejoin:miter;stroke:rgb(0%,0%,0%);stroke-opacity:1;stroke-miterlimit:10;" d="M -79.371188 -198.429531 C -79.371188 -195.296719 -81.91025 -192.757656 -85.039156 -192.757656 C -88.171969 -192.757656 -90.711031 -195.296719 -90.711031 -198.429531 C -90.711031 -201.558437 -88.171969 -204.0975 -85.039156 -204.0975 C -81.91025 -204.0975 -79.371188 -201.558437 -79.371188 -198.429531 Z M -79.371188 -198.429531 " transform="matrix(1,0,0,-1,121.254,36.215)"/>
<path style="fill-rule:nonzero;fill:rgb(0%,0%,0%);fill-opacity:1;stroke-width:0.3985;stroke-linecap:butt;stroke-linejoin:miter;stroke:rgb(0%,0%,0%);stroke-opacity:1;stroke-miterlimit:10;" d="M -107.718844 -170.081875 C -107.718844 -166.949062 -110.257906 -164.41 -113.386813 -164.41 C -116.519625 -164.41 -119.054781 -166.949062 -119.054781 -170.081875 C -119.054781 -173.210781 -116.519625 -175.749844 -113.386813 -175.749844 C -110.257906 -175.749844 -107.718844 -173.210781 -107.718844 -170.081875 Z M -107.718844 -170.081875 " transform="matrix(1,0,0,-1,121.254,36.215)"/>
<path style="fill:none;stroke-width:0.3985;stroke-linecap:butt;stroke-linejoin:miter;stroke:rgb(0%,0%,0%);stroke-opacity:1;stroke-miterlimit:10;" d="M 28.347562 -170.081875 C 28.347562 -154.425625 15.656156 -141.734219 -0.00009375 -141.734219 C -15.656344 -141.734219 -28.34775 -154.425625 -28.34775 -170.081875 C -28.34775 -185.738125 -15.656344 -198.429531 -0.00009375 -198.429531 C 15.656156 -198.429531 28.347562 -185.738125 28.347562 -170.081875 Z M 28.347562 -170.081875 " transform="matrix(1,0,0,-1,121.254,36.215)"/>
<path style="fill-rule:nonzero;fill:rgb(0%,0%,0%);fill-opacity:1;stroke-width:0.3985;stroke-linecap:butt;stroke-linejoin:miter;stroke:rgb(0%,0%,0%);stroke-opacity:1;stroke-miterlimit:10;" d="M 5.667875 -141.734219 C 5.667875 -138.601406 3.132719 -136.06625 -0.00009375 -136.06625 C -3.132906 -136.06625 -5.668063 -138.601406 -5.668063 -141.734219 C -5.668063 -144.867031 -3.132906 -147.402187 -0.00009375 -147.402187 C 3.132719 -147.402187 5.667875 -144.867031 5.667875 -141.734219 Z M 5.667875 -141.734219 " transform="matrix(1,0,0,-1,121.254,36.215)"/>
<path style="fill-rule:nonzero;fill:rgb(0%,0%,0%);fill-opacity:1;stroke-width:0.3985;stroke-linecap:butt;stroke-linejoin:miter;stroke:rgb(0%,0%,0%);stroke-opacity:1;stroke-miterlimit:10;" d="M 34.015531 -170.081875 C 34.015531 -166.949062 31.476469 -164.41 28.347562 -164.41 C 25.21475 -164.41 22.675687 -166.949062 22.675687 -170.081875 C 22.675687 -173.210781 25.21475 -175.749844 28.347562 -175.749844 C 31.476469 -175.749844 34.015531 -173.210781 34.015531 -170.081875 Z M 34.015531 -170.081875 " transform="matrix(1,0,0,-1,121.254,36.215)"/>
<path style="fill-rule:nonzero;fill:rgb(100%,100%,100%);fill-opacity:1;stroke-width:0.3985;stroke-linecap:butt;stroke-linejoin:miter;stroke:rgb(0%,0%,0%);stroke-opacity:1;stroke-miterlimit:10;" d="M 5.667875 -198.429531 C 5.667875 -195.296719 3.132719 -192.757656 -0.00009375 -192.757656 C -3.132906 -192.757656 -5.668063 -195.296719 -5.668063 -198.429531 C -5.668063 -201.558437 -3.132906 -204.0975 -0.00009375 -204.0975 C 3.132719 -204.0975 5.667875 -201.558437 5.667875 -198.429531 Z M 5.667875 -198.429531 " transform="matrix(1,0,0,-1,121.254,36.215)"/>
<path style="fill-rule:nonzero;fill:rgb(0%,0%,0%);fill-opacity:1;stroke-width:0.3985;stroke-linecap:butt;stroke-linejoin:miter;stroke:rgb(0%,0%,0%);stroke-opacity:1;stroke-miterlimit:10;" d="M -22.675875 -170.081875 C -22.675875 -166.949062 -25.214938 -164.41 -28.34775 -164.41 C -31.476656 -164.41 -34.015719 -166.949062 -34.015719 -170.081875 C -34.015719 -173.210781 -31.476656 -175.749844 -28.34775 -175.749844 C -25.214938 -175.749844 -22.675875 -173.210781 -22.675875 -170.081875 Z M -22.675875 -170.081875 " transform="matrix(1,0,0,-1,121.254,36.215)"/>
<path style="fill:none;stroke-width:0.3985;stroke-linecap:butt;stroke-linejoin:miter;stroke:rgb(0%,0%,0%);stroke-opacity:1;stroke-miterlimit:10;" d="M 113.386625 -170.081875 C 113.386625 -154.425625 100.695219 -141.734219 85.038969 -141.734219 C 69.386625 -141.734219 56.695219 -154.425625 56.695219 -170.081875 C 56.695219 -185.738125 69.386625 -198.429531 85.038969 -198.429531 C 100.695219 -198.429531 113.386625 -185.738125 113.386625 -170.081875 Z M 113.386625 -170.081875 " transform="matrix(1,0,0,-1,121.254,36.215)"/>
<path style="fill-rule:nonzero;fill:rgb(0%,0%,0%);fill-opacity:1;stroke-width:0.3985;stroke-linecap:butt;stroke-linejoin:miter;stroke:rgb(0%,0%,0%);stroke-opacity:1;stroke-miterlimit:10;" d="M 90.710844 -141.734219 C 90.710844 -138.601406 88.171781 -136.06625 85.038969 -136.06625 C 81.910062 -136.06625 79.371 -138.601406 79.371 -141.734219 C 79.371 -144.867031 81.910062 -147.402187 85.038969 -147.402187 C 88.171781 -147.402187 90.710844 -144.867031 90.710844 -141.734219 Z M 90.710844 -141.734219 " transform="matrix(1,0,0,-1,121.254,36.215)"/>
<path style=" stroke:none;fill-rule:nonzero;fill:rgb(100%,100%,100%);fill-opacity:1;" d="M 240.308594 206.296875 C 240.308594 203.164062 237.773438 200.625 234.640625 200.625 C 231.511719 200.625 228.972656 203.164062 228.972656 206.296875 C 228.972656 209.425781 231.511719 211.964844 234.640625 211.964844 C 237.773438 211.964844 240.308594 209.425781 240.308594 206.296875 Z M 240.308594 206.296875 "/>
<g clip-path="url(#clip3)" clip-rule="nonzero">
<path style="fill:none;stroke-width:0.3985;stroke-linecap:butt;stroke-linejoin:miter;stroke:rgb(0%,0%,0%);stroke-opacity:1;stroke-miterlimit:10;" d="M 119.054594 -170.081875 C 119.054594 -166.949062 116.519437 -164.41 113.386625 -164.41 C 110.257719 -164.41 107.718656 -166.949062 107.718656 -170.081875 C 107.718656 -173.210781 110.257719 -175.749844 113.386625 -175.749844 C 116.519437 -175.749844 119.054594 -173.210781 119.054594 -170.081875 Z M 119.054594 -170.081875 " transform="matrix(1,0,0,-1,121.254,36.215)"/>
</g>
<path style="fill-rule:nonzero;fill:rgb(0%,0%,0%);fill-opacity:1;stroke-width:0.3985;stroke-linecap:butt;stroke-linejoin:miter;stroke:rgb(0%,0%,0%);stroke-opacity:1;stroke-miterlimit:10;" d="M 90.710844 -198.429531 C 90.710844 -195.296719 88.171781 -192.757656 85.038969 -192.757656 C 81.910062 -192.757656 79.371 -195.296719 79.371 -198.429531 C 79.371 -201.558437 81.910062 -204.0975 85.038969 -204.0975 C 88.171781 -204.0975 90.710844 -201.558437 90.710844 -198.429531 Z M 90.710844 -198.429531 " transform="matrix(1,0,0,-1,121.254,36.215)"/>
<path style="fill-rule:nonzero;fill:rgb(0%,0%,0%);fill-opacity:1;stroke-width:0.3985;stroke-linecap:butt;stroke-linejoin:miter;stroke:rgb(0%,0%,0%);stroke-opacity:1;stroke-miterlimit:10;" d="M 62.363187 -170.081875 C 62.363187 -166.949062 59.824125 -164.41 56.695219 -164.41 C 53.562406 -164.41 51.023344 -166.949062 51.023344 -170.081875 C 51.023344 -173.210781 53.562406 -175.749844 56.695219 -175.749844 C 59.824125 -175.749844 62.363187 -173.210781 62.363187 -170.081875 Z M 62.363187 -170.081875 " transform="matrix(1,0,0,-1,121.254,36.215)"/>
<path style="fill:none;stroke-width:0.3985;stroke-linecap:butt;stroke-linejoin:miter;stroke:rgb(0%,0%,0%);stroke-opacity:1;stroke-miterlimit:10;" d="M -56.695406 -255.120937 C -56.695406 -239.464687 -69.382906 -226.773281 -85.039156 -226.773281 C -100.695406 -226.773281 -113.386813 -239.464687 -113.386813 -255.120937 C -113.386813 -270.777187 -100.695406 -283.468594 -85.039156 -283.468594 C -69.382906 -283.468594 -56.695406 -270.777187 -56.695406 -255.120937 Z M -56.695406 -255.120937 " transform="matrix(1,0,0,-1,121.254,36.215)"/>
<path style="fill-rule:nonzero;fill:rgb(0%,0%,0%);fill-opacity:1;stroke-width:0.3985;stroke-linecap:butt;stroke-linejoin:miter;stroke:rgb(0%,0%,0%);stroke-opacity:1;stroke-miterlimit:10;" d="M -79.371188 -226.773281 C -79.371188 -223.644375 -81.91025 -221.105312 -85.039156 -221.105312 C -88.171969 -221.105312 -90.711031 -223.644375 -90.711031 -226.773281 C -90.711031 -229.906094 -88.171969 -232.445156 -85.039156 -232.445156 C -81.91025 -232.445156 -79.371188 -229.906094 -79.371188 -226.773281 Z M -79.371188 -226.773281 " transform="matrix(1,0,0,-1,121.254,36.215)"/>
<path style="fill-rule:nonzero;fill:rgb(100%,100%,100%);fill-opacity:1;stroke-width:0.3985;stroke-linecap:butt;stroke-linejoin:miter;stroke:rgb(0%,0%,0%);stroke-opacity:1;stroke-miterlimit:10;" d="M -51.023531 -255.120937 C -51.023531 -251.992031 -53.562594 -249.452969 -56.695406 -249.452969 C -59.824313 -249.452969 -62.363375 -251.992031 -62.363375 -255.120937 C -62.363375 -258.25375 -59.824313 -260.788906 -56.695406 -260.788906 C -53.562594 -260.788906 -51.023531 -258.25375 -51.023531 -255.120937 Z M -51.023531 -255.120937 " transform="matrix(1,0,0,-1,121.254,36.215)"/>
<path style=" stroke:none;fill-rule:nonzero;fill:rgb(100%,100%,100%);fill-opacity:1;" d="M 41.882812 319.683594 C 41.882812 316.550781 39.34375 314.015625 36.214844 314.015625 C 33.082031 314.015625 30.542969 316.550781 30.542969 319.683594 C 30.542969 322.8125 33.082031 325.351562 36.214844 325.351562 C 39.34375 325.351562 41.882812 322.8125 41.882812 319.683594 Z M 41.882812 319.683594 "/>
<g clip-path="url(#clip4)" clip-rule="nonzero">
<path style="fill:none;stroke-width:0.3985;stroke-linecap:butt;stroke-linejoin:miter;stroke:rgb(0%,0%,0%);stroke-opacity:1;stroke-miterlimit:10;" d="M -79.371188 -283.468594 C -79.371188 -280.335781 -81.91025 -277.800625 -85.039156 -277.800625 C -88.171969 -277.800625 -90.711031 -280.335781 -90.711031 -283.468594 C -90.711031 -286.5975 -88.171969 -289.136562 -85.039156 -289.136562 C -81.91025 -289.136562 -79.371188 -286.5975 -79.371188 -283.468594 Z M -79.371188 -283.468594 " transform="matrix(1,0,0,-1,121.254,36.215)"/>
</g>
<path style="fill-rule:nonzero;fill:rgb(100%,100%,100%);fill-opacity:1;stroke-width:0.3985;stroke-linecap:butt;stroke-linejoin:miter;stroke:rgb(0%,0%,0%);stroke-opacity:1;stroke-miterlimit:10;" d="M -107.718844 -255.120937 C -107.718844 -251.992031 -110.257906 -249.452969 -113.386813 -249.452969 C -116.519625 -249.452969 -119.054781 -251.992031 -119.054781 -255.120937 C -119.054781 -258.25375 -116.519625 -260.788906 -113.386813 -260.788906 C -110.257906 -260.788906 -107.718844 -258.25375 -107.718844 -255.120937 Z M -107.718844 -255.120937 " transform="matrix(1,0,0,-1,121.254,36.215)"/>
<path style="fill:none;stroke-width:0.3985;stroke-linecap:butt;stroke-linejoin:miter;stroke:rgb(0%,0%,0%);stroke-opacity:1;stroke-miterlimit:10;" d="M 28.347562 -255.120937 C 28.347562 -239.464687 15.656156 -226.773281 -0.00009375 -226.773281 C -15.656344 -226.773281 -28.34775 -239.464687 -28.34775 -255.120937 C -28.34775 -270.777187 -15.656344 -283.468594 -0.00009375 -283.468594 C 15.656156 -283.468594 28.347562 -270.777187 28.347562 -255.120937 Z M 28.347562 -255.120937 " transform="matrix(1,0,0,-1,121.254,36.215)"/>
<path style="fill-rule:nonzero;fill:rgb(100%,100%,100%);fill-opacity:1;stroke-width:0.3985;stroke-linecap:butt;stroke-linejoin:miter;stroke:rgb(0%,0%,0%);stroke-opacity:1;stroke-miterlimit:10;" d="M 5.667875 -226.773281 C 5.667875 -223.644375 3.132719 -221.105312 -0.00009375 -221.105312 C -3.132906 -221.105312 -5.668063 -223.644375 -5.668063 -226.773281 C -5.668063 -229.906094 -3.132906 -232.445156 -0.00009375 -232.445156 C 3.132719 -232.445156 5.667875 -229.906094 5.667875 -226.773281 Z M 5.667875 -226.773281 " transform="matrix(1,0,0,-1,121.254,36.215)"/>
<path style="fill-rule:nonzero;fill:rgb(100%,100%,100%);fill-opacity:1;stroke-width:0.3985;stroke-linecap:butt;stroke-linejoin:miter;stroke:rgb(0%,0%,0%);stroke-opacity:1;stroke-miterlimit:10;" d="M 34.015531 -255.120937 C 34.015531 -251.992031 31.476469 -249.452969 28.347562 -249.452969 C 25.21475 -249.452969 22.675687 -251.992031 22.675687 -255.120937 C 22.675687 -258.25375 25.21475 -260.788906 28.347562 -260.788906 C 31.476469 -260.788906 34.015531 -258.25375 34.015531 -255.120937 Z M 34.015531 -255.120937 " transform="matrix(1,0,0,-1,121.254,36.215)"/>
<path style=" stroke:none;fill-rule:nonzero;fill:rgb(0%,0%,0%);fill-opacity:1;" d="M 126.921875 319.683594 C 126.921875 316.550781 124.386719 314.015625 121.253906 314.015625 C 118.121094 314.015625 115.585938 316.550781 115.585938 319.683594 C 115.585938 322.8125 118.121094 325.351562 121.253906 325.351562 C 124.386719 325.351562 126.921875 322.8125 126.921875 319.683594 Z M 126.921875 319.683594 "/>
<g clip-path="url(#clip5)" clip-rule="nonzero">
<path style="fill:none;stroke-width:0.3985;stroke-linecap:butt;stroke-linejoin:miter;stroke:rgb(0%,0%,0%);stroke-opacity:1;stroke-miterlimit:10;" d="M 5.667875 -283.468594 C 5.667875 -280.335781 3.132719 -277.800625 -0.00009375 -277.800625 C -3.132906 -277.800625 -5.668063 -280.335781 -5.668063 -283.468594 C -5.668063 -286.5975 -3.132906 -289.136562 -0.00009375 -289.136562 C 3.132719 -289.136562 5.667875 -286.5975 5.667875 -283.468594 Z M 5.667875 -283.468594 " transform="matrix(1,0,0,-1,121.254,36.215)"/>
</g>
<path style="fill-rule:nonzero;fill:rgb(100%,100%,100%);fill-opacity:1;stroke-width:0.3985;stroke-linecap:butt;stroke-linejoin:miter;stroke:rgb(0%,0%,0%);stroke-opacity:1;stroke-miterlimit:10;" d="M -22.675875 -255.120937 C -22.675875 -251.992031 -25.214938 -249.452969 -28.34775 -249.452969 C -31.476656 -249.452969 -34.015719 -251.992031 -34.015719 -255.120937 C -34.015719 -258.25375 -31.476656 -260.788906 -28.34775 -260.788906 C -25.214938 -260.788906 -22.675875 -258.25375 -22.675875 -255.120937 Z M -22.675875 -255.120937 " transform="matrix(1,0,0,-1,121.254,36.215)"/>
<path style="fill:none;stroke-width:0.3985;stroke-linecap:butt;stroke-linejoin:miter;stroke:rgb(0%,0%,0%);stroke-opacity:1;stroke-miterlimit:10;" d="M 113.386625 -255.120937 C 113.386625 -239.464687 100.695219 -226.773281 85.038969 -226.773281 C 69.386625 -226.773281 56.695219 -239.464687 56.695219 -255.120937 C 56.695219 -270.777187 69.386625 -283.468594 85.038969 -283.468594 C 100.695219 -283.468594 113.386625 -270.777187 113.386625 -255.120937 Z M 113.386625 -255.120937 " transform="matrix(1,0,0,-1,121.254,36.215)"/>
<path style="fill-rule:nonzero;fill:rgb(100%,100%,100%);fill-opacity:1;stroke-width:0.3985;stroke-linecap:butt;stroke-linejoin:miter;stroke:rgb(0%,0%,0%);stroke-opacity:1;stroke-miterlimit:10;" d="M 90.710844 -226.773281 C 90.710844 -223.644375 88.171781 -221.105312 85.038969 -221.105312 C 81.910062 -221.105312 79.371 -223.644375 79.371 -226.773281 C 79.371 -229.906094 81.910062 -232.445156 85.038969 -232.445156 C 88.171781 -232.445156 90.710844 -229.906094 90.710844 -226.773281 Z M 90.710844 -226.773281 " transform="matrix(1,0,0,-1,121.254,36.215)"/>
<path style=" stroke:none;fill-rule:nonzero;fill:rgb(0%,0%,0%);fill-opacity:1;" d="M 240.308594 291.335938 C 240.308594 288.207031 237.773438 285.667969 234.640625 285.667969 C 231.511719 285.667969 228.972656 288.207031 228.972656 291.335938 C 228.972656 294.46875 231.511719 297.003906 234.640625 297.003906 C 237.773438 297.003906 240.308594 294.46875 240.308594 291.335938 Z M 240.308594 291.335938 "/>
<g clip-path="url(#clip6)" clip-rule="nonzero">
<path style="fill:none;stroke-width:0.3985;stroke-linecap:butt;stroke-linejoin:miter;stroke:rgb(0%,0%,0%);stroke-opacity:1;stroke-miterlimit:10;" d="M 119.054594 -255.120937 C 119.054594 -251.992031 116.519437 -249.452969 113.386625 -249.452969 C 110.257719 -249.452969 107.718656 -251.992031 107.718656 -255.120937 C 107.718656 -258.25375 110.257719 -260.788906 113.386625 -260.788906 C 116.519437 -260.788906 119.054594 -258.25375 119.054594 -255.120937 Z M 119.054594 -255.120937 " transform="matrix(1,0,0,-1,121.254,36.215)"/>
</g>
<path style=" stroke:none;fill-rule:nonzero;fill:rgb(100%,100%,100%);fill-opacity:1;" d="M 211.964844 319.683594 C 211.964844 316.550781 209.425781 314.015625 206.292969 314.015625 C 203.164062 314.015625 200.625 316.550781 200.625 319.683594 C 200.625 322.8125 203.164062 325.351562 206.292969 325.351562 C 209.425781 325.351562 211.964844 322.8125 211.964844 319.683594 Z M 211.964844 319.683594 "/>
<g clip-path="url(#clip7)" clip-rule="nonzero">
<path style="fill:none;stroke-width:0.3985;stroke-linecap:butt;stroke-linejoin:miter;stroke:rgb(0%,0%,0%);stroke-opacity:1;stroke-miterlimit:10;" d="M 90.710844 -283.468594 C 90.710844 -280.335781 88.171781 -277.800625 85.038969 -277.800625 C 81.910062 -277.800625 79.371 -280.335781 79.371 -283.468594 C 79.371 -286.5975 81.910062 -289.136562 85.038969 -289.136562 C 88.171781 -289.136562 90.710844 -286.5975 90.710844 -283.468594 Z M 90.710844 -283.468594 " transform="matrix(1,0,0,-1,121.254,36.215)"/>
</g>
<path style="fill-rule:nonzero;fill:rgb(100%,100%,100%);fill-opacity:1;stroke-width:0.3985;stroke-linecap:butt;stroke-linejoin:miter;stroke:rgb(0%,0%,0%);stroke-opacity:1;stroke-miterlimit:10;" d="M 62.363187 -255.120937 C 62.363187 -251.992031 59.824125 -249.452969 56.695219 -249.452969 C 53.562406 -249.452969 51.023344 -251.992031 51.023344 -255.120937 C 51.023344 -258.25375 53.562406 -260.788906 56.695219 -260.788906 C 59.824125 -260.788906 62.363187 -258.25375 62.363187 -255.120937 Z M 62.363187 -255.120937 " transform="matrix(1,0,0,-1,121.254,36.215)"/>
</g>
</svg>
