<?xml version="1.0" encoding="UTF-8" standalone="no"?>
<!DOCTYPE svg PUBLIC "-//W3C//DTD SVG 1.1//EN" "http://www.w3.org/Graphics/SVG/1.1/DTD/svg11.dtd">
<svg xmlns="http://www.w3.org/2000/svg" xmlns:xlink="http://www.w3.org/1999/xlink" version="1.1" width="300.000pt" height="266.061pt" viewBox="0 0 219.078 194.294">
<g enable-background="new">
<path transform="matrix(1,0,0,-1,38.79,150.141)" stroke-width=".19925" stroke-linecap="butt" stroke-miterlimit="10" stroke-linejoin="miter" fill="none" stroke="#929292" d="M 0 -13.45021 L 0 -9.19835 M 32.38324 -13.45021 L 32.38324 -9.19835 M 64.7665 -13.45021 L 64.7665 -9.19835 M 97.14975 -13.45021 L 97.14975 -9.19835 M 129.533 -13.45021 L 129.533 -9.19835 M 161.91626 -13.45021 L 161.91626 -9.19835 M 0 147.94428 L 0 143.69243 M 32.38324 147.94428 L 32.38324 143.69243 M 64.7665 147.94428 L 64.7665 143.69243 M 97.14975 147.94428 L 97.14975 143.69243 M 129.533 147.94428 L 129.533 143.69243 M 161.91626 147.94428 L 161.91626 143.69243 "/>
<path transform="matrix(1,0,0,-1,38.79,150.141)" stroke-width=".19925" stroke-linecap="butt" stroke-miterlimit="10" stroke-linejoin="miter" fill="none" stroke="#929292" d="M -16.19096 0 L -11.93912 0 M -16.19096 38.81064 L -11.93912 38.81064 M -16.19096 77.62129 L -11.93912 77.62129 M -16.19096 116.43195 L -11.93912 116.43195 M 178.09091 0 L 173.83908 0 M 178.09091 38.81064 L 173.83908 38.81064 M 178.09091 77.62129 L 173.83908 77.62129 M 178.09091 116.43195 L 173.83908 116.43195 "/>
<path transform="matrix(1,0,0,-1,38.79,150.141)" stroke-width=".3985" stroke-linecap="butt" stroke-miterlimit="10" stroke-linejoin="miter" fill="none" stroke="#000000" d="M -16.19096 -13.45021 L -16.19096 147.94428 L 178.09091 147.94428 L 178.09091 -13.45021 L -16.19096 -13.45021 Z "/>
<text xml:space="preserve" transform="matrix(1 0 -0 1 0 194.294)" font-size="9.9626" font-family="CMR10"><tspan y="-20.763" x="36.299">0</tspan></text>
<text xml:space="preserve" transform="matrix(1 0 -0 1 0 194.294)" font-size="9.9626" font-family="CMR10"><tspan y="-20.763" x="64.808">0</tspan></text>
<text xml:space="preserve" transform="matrix(1 0 -0 1 0 194.294)" font-size="9.9626" font-family="CMMI10" font-style="italic"><tspan y="-20.763" x="69.789">.</tspan></text>
<text xml:space="preserve" transform="matrix(1 0 -0 1 0 194.294)" font-size="9.9626" font-family="CMR10"><tspan y="-20.763" x="72.556">2</tspan></text>
<text xml:space="preserve" transform="matrix(1 0 -0 1 0 194.294)" font-size="9.9626" font-family="CMR10"><tspan y="-20.763" x="97.19">0</tspan></text>
<text xml:space="preserve" transform="matrix(1 0 -0 1 0 194.294)" font-size="9.9626" font-family="CMMI10" font-style="italic"><tspan y="-20.763" x="102.172008">.</tspan></text>
<text xml:space="preserve" transform="matrix(1 0 -0 1 0 194.294)" font-size="9.9626" font-family="CMR10"><tspan y="-20.763" x="104.939">4</tspan></text>
<text xml:space="preserve" transform="matrix(1 0 -0 1 0 194.294)" font-size="9.9626" font-family="CMR10"><tspan y="-20.763" x="129.573">0</tspan></text>
<text xml:space="preserve" transform="matrix(1 0 -0 1 0 194.294)" font-size="9.9626" font-family="CMMI10" font-style="italic"><tspan y="-20.763" x="134.555">.</tspan></text>
<text xml:space="preserve" transform="matrix(1 0 -0 1 0 194.294)" font-size="9.9626" font-family="CMR10"><tspan y="-20.763" x="137.32199">6</tspan></text>
<text xml:space="preserve" transform="matrix(1 0 -0 1 0 194.294)" font-size="9.9626" font-family="CMR10"><tspan y="-20.763" x="161.956">0</tspan></text>
<text xml:space="preserve" transform="matrix(1 0 -0 1 0 194.294)" font-size="9.9626" font-family="CMMI10" font-style="italic"><tspan y="-20.763" x="166.937">.</tspan></text>
<text xml:space="preserve" transform="matrix(1 0 -0 1 0 194.294)" font-size="9.9626" font-family="CMR10"><tspan y="-20.763" x="169.705">8</tspan></text>
<text xml:space="preserve" transform="matrix(1 0 -0 1 .000015258789 194.294)" font-size="9.9626" font-family="CMR10"><tspan y="-20.763" x="198.213">1</tspan></text>
<clipPath id="cp0">
<path transform="matrix(1,0,0,-1,38.79,150.141)" d="M -16.19096 -13.45021 L 178.09091 -13.45021 L 178.09091 147.94428 L -16.19096 147.94428 Z "/>
</clipPath>
<g clip-path="url(#cp0)">
<path transform="matrix(1,0,0,-1,38.79,150.141)" stroke-width=".3985" stroke-linecap="butt" stroke-dasharray="2.98883,2.98883" stroke-miterlimit="10" stroke-linejoin="miter" fill="none" stroke="#000000" d="M 0 0 L 1.63535 5.37921 L 3.27069 10.64865 L 4.90605 15.80833 L 6.5414 20.85825 L 8.17676 25.79839 L 9.8121 30.62875 L 11.44746 35.34937 L 13.08281 39.96022 L 14.71817 44.46123 L 16.35353 48.85262 L 17.98889 53.13411 L 19.62424 57.30583 L 21.2596 61.36778 L 22.89494 65.32008 L 24.5303 69.16249 L 26.16565 72.89514 L 27.80101 76.51811 L 29.43636 80.03123 L 31.07172 83.43462 L 32.70706 86.72826 L 34.34242 89.91208 L 35.97777 92.98615 L 37.61313 95.95042 L 39.24847 98.80498 L 40.88383 101.54976 L 42.51918 104.18471 L 44.15454 106.70998 L 45.78989 109.12543 L 47.42523 111.4311 L 49.0606 113.62704 L 50.69594 115.71321 L 52.3313 117.68956 L 53.96664 119.55623 L 55.602 121.31305 L 57.23735 122.9601 L 58.87271 124.49739 L 60.50806 125.92499 L 62.14342 127.2427 L 63.77876 128.4507 L 65.41412 129.549 L 67.04947 130.53745 L 68.68483 131.4161 L 70.32018 132.18509 L 71.95554 132.84424 L 73.59088 133.39359 L 75.22624 133.83322 L 76.86159 134.1631 L 78.49695 134.38314 L 80.1323 134.49347 L 81.76765 134.49405 L 83.403 134.38486 L 85.03836 134.16582 L 86.6737 133.83705 L 88.30907 133.39859 L 89.94441 132.85024 L 91.57977 132.19217 L 93.21512 131.42438 L 94.85046 130.54673 L 96.48582 129.55936 L 98.12117 128.46228 L 99.75653 127.25536 L 101.39188 125.93864 L 103.02724 124.51219 L 104.66258 122.97601 L 106.29794 121.32999 L 107.93329 119.57423 L 109.56865 117.70876 L 111.204 115.73343 L 112.83936 113.64838 L 114.4747 111.45358 L 116.11006 109.149 L 117.7454 106.73465 L 119.38077 104.21053 L 121.01611 101.57663 L 122.65147 98.8329 L 124.28682 95.97948 L 125.92218 93.01628 L 127.55753 89.94325 L 129.19289 86.76053 L 130.82823 83.46802 L 132.4636 80.06575 L 134.09894 76.55367 L 135.7343 72.93185 L 137.36965 69.20029 L 139.005 65.35887 L 140.64035 61.40785 L 142.2757 57.34698 L 143.91106 53.17625 L 145.5464 48.89583 L 147.18177 44.50565 L 148.81711 40.00572 L 150.45247 35.39594 L 152.08782 30.6764 L 153.72318 25.84718 L 155.35852 20.90808 L 156.99388 15.85927 L 158.62923 10.70074 L 160.26459 5.43234 L 161.89994 .05426 "/>
<path transform="matrix(1,0,0,-1,38.79,150.141)" stroke-width=".3985" stroke-linecap="butt" stroke-miterlimit="10" stroke-linejoin="miter" fill="none" stroke="#000000" d="M 0 0 L 1.63535 5.28639 L 3.27069 10.40788 L 4.90605 15.41891 L 6.5414 20.21536 L 8.17676 24.83 L 9.8121 29.30554 L 11.44746 33.61058 L 13.08281 37.74034 L 14.71817 41.70424 L 16.35353 45.53246 L 17.98889 49.1953 L 19.62424 52.69504 L 21.2596 56.03404 L 22.89494 59.25133 L 24.5303 62.34468 L 26.16565 65.2469 L 27.80101 68.026 L 29.43636 70.69586 L 31.07172 73.21039 L 32.70706 75.60928 L 34.34242 77.86006 L 35.97777 79.97122 L 37.61313 82.0076 L 39.24847 83.86607 L 40.88383 85.65196 L 42.51918 87.29936 L 44.15454 88.81342 L 45.78989 90.25499 L 47.42523 91.53345 L 49.0606 92.74446 L 50.69594 93.82385 L 52.3313 94.83723 L 53.96664 95.70154 L 55.602 96.49428 L 57.23735 97.16527 L 58.87271 97.77393 L 60.50806 98.2664 L 62.14342 98.64035 L 63.77876 98.9548 L 65.41412 99.1795 L 67.04947 99.29741 L 68.68483 99.32654 L 70.32018 99.29678 L 71.95554 99.16273 L 73.59088 98.95006 L 75.22624 98.65569 L 76.86159 98.28488 L 78.49695 97.83481 L 80.1323 97.30673 L 81.76765 96.7077 L 83.403 96.03113 L 85.03836 95.28578 L 86.6737 94.46724 L 88.30907 93.58029 L 89.94441 92.63976 L 91.57977 91.61378 L 93.21512 90.53766 L 94.85046 89.37915 L 96.48582 88.17207 L 98.12117 86.90111 L 99.75653 85.56892 L 101.39188 84.17216 L 103.02724 82.71799 L 104.66258 81.21686 L 106.29794 79.65558 L 107.93329 78.02644 L 109.56865 76.36539 L 111.204 74.63606 L 112.83936 72.86565 L 114.4747 71.03917 L 116.11006 69.16135 L 117.7454 67.23424 L 119.38077 65.26396 L 121.01611 63.24594 L 122.65147 61.17732 L 124.28682 59.07129 L 125.92218 56.91908 L 127.55753 54.72008 L 129.19289 52.48425 L 130.82823 50.2034 L 132.4636 47.88162 L 134.09894 45.5217 L 135.7343 43.12228 L 137.36965 40.68771 L 139.005 38.21313 L 140.64035 35.70027 L 142.2757 33.15395 L 143.91106 30.57031 L 145.5464 27.95068 L 147.18177 25.29968 L 148.81711 22.61734 L 150.45247 19.90085 L 152.08782 17.15143 L 153.72318 14.37227 L 155.35852 11.56181 L 156.99388 8.72209 L 158.62923 5.85275 L 160.26459 2.95514 L 161.89994 .02934 "/>
</g>
<text xml:space="preserve" transform="matrix(1 0 -0 1 0 194.294)" font-size="9.9626" font-family="CMMI10" font-style="italic"><tspan y="-5.321" x="116.989">k</tspan></text>
<text xml:space="preserve" transform="matrix(0 -1 1 0 118.121 100.651)" font-size="9.9626" font-family="CMR10"><tspan y="-105.882" x="12.239">d</tspan></text>
<text xml:space="preserve" transform="matrix(0 -1 1 0 118.121 100.651)" font-size="9.9626" font-family="CMMI10" font-style="italic"><tspan y="-105.882" x="17.774">k</tspan></text>
</g>
</svg>
